<svg width="170" height="50" viewBox="0 0 170 50" fill="none" xmlns="http://www.w3.org/2000/svg">
<rect width="50" height="50" rx="12" fill="#6366f1"/>
<path d="M23.032 16.624C23.1813 16.624 23.2653 16.7173 23.284 16.904C23.3213 17.072 23.34 17.24 23.34 17.408L23.312 17.604C23.2933 17.716 23.2653 17.8653 23.228 18.052C23.1907 18.22 23.144 18.4067 23.088 18.612C23.0507 18.8173 22.9947 19.004 22.92 19.172C22.6587 19.9933 22.444 20.8053 22.276 21.608C22.1267 22.4107 22.0053 23.2227 21.912 24.044C21.8187 24.8467 21.744 25.6587 21.688 26.48C21.632 27.3013 21.576 28.132 21.52 28.972C21.5947 28.2067 21.66 27.404 21.716 26.564C21.7907 25.724 21.884 24.884 21.996 24.044C22.108 23.1853 22.248 22.3547 22.416 21.552C22.6027 20.7307 22.8547 19.9653 23.172 19.256C22.892 21.048 22.6587 22.8307 22.472 24.604C22.304 26.3773 22.164 28.1693 22.052 29.98L21.716 30.148C21.716 31.2867 21.604 32.3787 21.38 33.424C21.156 34.4507 20.904 35.5147 20.624 36.616C20.5307 36.616 20.4187 36.616 20.288 36.616C20.176 36.6347 20.064 36.644 19.952 36.644C19.8587 36.644 19.728 36.616 19.56 36.56C19.392 36.504 19.2147 36.4293 19.028 36.336C18.8413 36.2613 18.6453 36.168 18.44 36.056C18.2533 35.9627 18.0947 35.8693 17.964 35.776C17.1613 35.2533 16.4427 34.6093 15.808 33.844C15.1733 33.06 14.604 32.2013 14.1 31.268C13.596 30.3347 13.148 29.3547 12.756 28.328C12.364 27.2827 11.9907 26.2373 11.636 25.192C11.3 24.1467 10.9733 23.1293 10.656 22.14C10.3387 21.132 10.0213 20.208 9.704 19.368L9.536 19.508C9.85333 20.4413 10.1613 21.4587 10.46 22.56C10.7773 23.6427 11.104 24.7533 11.44 25.892C11.7947 27.012 12.1867 28.1227 12.616 29.224C13.064 30.3253 13.5773 31.352 14.156 32.304C14.7533 33.256 15.444 34.1053 16.228 34.852C17.012 35.58 17.9267 36.1493 18.972 36.56C18.076 36.3173 17.2733 35.9067 16.564 35.328C15.8733 34.7307 15.2387 34.0307 14.66 33.228C14.1 32.4253 13.596 31.5573 13.148 30.624C12.7187 29.672 12.3267 28.7107 11.972 27.74C11.6173 26.7693 11.3 25.8173 11.02 24.884C10.74 23.9507 10.4787 23.1013 10.236 22.336C10.236 23.12 10.2733 23.8853 10.348 24.632C10.4413 25.3787 10.488 26.1347 10.488 26.9C10.488 28.188 10.5253 29.4853 10.6 30.792C10.6747 32.08 10.7493 33.368 10.824 34.656L10.208 34.768C10.0587 34.768 9.94667 34.6467 9.872 34.404C9.79733 34.1427 9.74133 33.8533 9.704 33.536C9.66667 33.2187 9.63867 32.92 9.62 32.64C9.62 32.3413 9.62 32.1547 9.62 32.08H9.284C9.284 32.2293 9.27467 32.528 9.256 32.976C9.256 33.4053 9.228 33.8533 9.172 34.32C9.116 34.7867 9.02267 35.2067 8.892 35.58C8.78 35.9533 8.612 36.14 8.388 36.14C8.23867 36.14 8.09867 35.8973 7.968 35.412C7.83733 34.908 7.70667 34.2547 7.576 33.452C7.44533 32.6307 7.324 31.7067 7.212 30.68C7.1 29.6347 7.00667 28.58 6.932 27.516C6.85733 26.452 6.792 25.416 6.736 24.408C6.69867 23.4 6.68 22.5133 6.68 21.748C6.68 20.7587 6.74533 19.7787 6.876 18.808C7.02533 17.8373 7.25867 16.876 7.576 15.924L10.656 15.336C10.7493 15.4667 10.8333 15.588 10.908 15.7C10.9827 15.7933 11.0667 15.896 11.16 16.008C11.7013 16.792 12.168 17.6507 12.56 18.584C12.952 19.4987 13.3067 20.46 13.624 21.468C13.9413 22.4573 14.24 23.4653 14.52 24.492C14.8187 25.5 15.1453 26.4893 15.5 27.46C15.8547 28.412 16.2653 29.3173 16.732 30.176C17.1987 31.0347 17.768 31.8 18.44 32.472C18.5147 31.9307 18.58 31.212 18.636 30.316C18.7107 29.42 18.7853 28.4587 18.86 27.432C18.9533 26.4053 19.0467 25.3787 19.14 24.352C19.2333 23.3067 19.3453 22.364 19.476 21.524C19.6253 20.6653 19.7933 19.9747 19.98 19.452C20.1853 18.9107 20.4187 18.64 20.68 18.64L20.848 18.752C20.456 19.9093 20.1853 21.076 20.036 22.252C19.9053 23.428 19.8027 24.6133 19.728 25.808C19.672 27.0027 19.5973 28.1973 19.504 29.392C19.4293 30.568 19.252 31.7347 18.972 32.892L19.14 32.976C19.1587 32.808 19.1773 32.64 19.196 32.472C19.2147 32.2853 19.2427 32.108 19.28 31.94C19.4293 30.8573 19.532 29.7747 19.588 28.692C19.6627 27.5907 19.7373 26.4893 19.812 25.388C19.9053 24.2867 20.0267 23.1947 20.176 22.112C20.344 21.0293 20.596 19.9653 20.932 18.92L21.212 19.116C21.324 19.0413 21.4267 18.8733 21.52 18.612C21.6133 18.332 21.7253 18.052 21.856 17.772C21.9867 17.4733 22.1453 17.212 22.332 16.988C22.5187 16.7453 22.752 16.624 23.032 16.624ZM20.176 36.392C20.3813 35.72 20.568 35.048 20.736 34.376C20.904 33.704 21.0347 33.0133 21.128 32.304C21.016 32.976 20.8667 33.6387 20.68 34.292C20.512 34.9267 20.344 35.5707 20.176 36.224C19.056 35.832 18.1413 35.4027 17.432 34.936C16.7413 34.4693 16.1533 33.9373 15.668 33.34C15.2013 32.7427 14.7813 32.0707 14.408 31.324C14.1093 30.7453 13.7827 30.1013 13.428 29.392C13.652 29.8587 13.848 30.288 14.016 30.68C14.2773 31.2213 14.5293 31.7253 14.772 32.192C15.0333 32.64 15.304 33.0507 15.584 33.424C15.864 33.7787 16.2093 34.124 16.62 34.46C17.0307 34.7773 17.516 35.0947 18.076 35.412C18.6547 35.7107 19.3547 36.0373 20.176 36.392ZM18.888 33.592C18.7013 33.4613 18.4587 33.2093 18.16 32.836C17.88 32.4627 17.5907 32.08 17.292 31.688C17.012 31.2773 16.76 30.9133 16.536 30.596C16.312 30.2787 16.1813 30.1107 16.144 30.092C16.4427 30.7827 16.8253 31.4173 17.292 31.996C17.7773 32.556 18.2813 33.088 18.804 33.592H18.888ZM29.2436 33.396V32.528L29.6076 32.304C29.5516 31.9867 29.5143 31.6787 29.4956 31.38C29.477 31.0627 29.4676 30.7453 29.4676 30.428C29.4676 30.0733 29.4676 29.728 29.4676 29.392C29.4863 29.0373 29.4956 28.6733 29.4956 28.3C29.4956 27.908 29.477 27.516 29.4396 27.124C29.4023 26.732 29.337 26.34 29.2436 25.948H29.0756C29.0943 26.9373 29.1223 27.908 29.1596 28.86C29.2156 29.812 29.2436 30.7827 29.2436 31.772C29.1503 30.3533 29.0383 28.9347 28.9076 27.516C28.7956 26.0973 28.7396 24.66 28.7396 23.204C28.7396 22.7747 28.7583 22.3453 28.7956 21.916C28.8516 21.468 28.9076 21.0293 28.9636 20.6L27.1156 21.076L27.1436 20.992C27.1063 20.936 27.0503 20.8333 26.9756 20.684C26.9196 20.5347 26.8916 20.4413 26.8916 20.404C26.8916 20.3107 26.985 20.2173 27.1716 20.124C27.377 20.012 27.601 19.9187 27.8436 19.844C28.105 19.7693 28.3476 19.704 28.5716 19.648C28.8143 19.592 28.9823 19.5547 29.0756 19.536L28.9916 19.2C28.8423 19.2373 28.5343 19.284 28.0676 19.34C27.6196 19.3773 27.1623 19.396 26.6956 19.396C26.3223 19.396 25.9956 19.368 25.7156 19.312C25.4356 19.256 25.2956 19.1347 25.2956 18.948C25.2956 18.7427 25.4823 18.5373 25.8556 18.332C26.229 18.1267 26.705 17.94 27.2836 17.772C27.881 17.5853 28.5343 17.4173 29.2436 17.268C29.953 17.1187 30.6343 16.988 31.2876 16.876C31.941 16.764 32.529 16.68 33.0516 16.624C33.5743 16.568 33.9383 16.54 34.1436 16.54C35.0956 16.54 36.001 16.6613 36.8596 16.904C37.737 17.128 38.5023 17.492 39.1556 17.996C39.809 18.4813 40.3223 19.1067 40.6956 19.872C41.0876 20.6373 41.2836 21.5427 41.2836 22.588C41.2836 23.0173 41.2183 23.4653 41.0876 23.932C40.957 24.38 40.7516 24.8187 40.4716 25.248C40.2103 25.6587 39.865 26.032 39.4356 26.368C39.025 26.704 38.5303 26.9467 37.9516 27.096C38.9223 27.2267 39.753 27.4507 40.4436 27.768C41.153 28.0853 41.7223 28.468 42.1516 28.916C42.5996 29.364 42.9263 29.868 43.1316 30.428C43.337 30.988 43.4396 31.5853 43.4396 32.22C43.4396 33.0413 43.2716 33.7413 42.9356 34.32C42.6183 34.8987 42.189 35.384 41.6476 35.776C41.1063 36.168 40.4903 36.4667 39.7996 36.672C39.109 36.896 38.3903 37.064 37.6436 37.176C36.897 37.288 36.1596 37.3533 35.4316 37.372C34.7036 37.4093 34.041 37.428 33.4436 37.428C33.2943 37.428 33.005 37.4187 32.5756 37.4C32.165 37.3813 31.7356 37.344 31.2876 37.288C30.8396 37.232 30.4383 37.148 30.0836 37.036C29.7476 36.9427 29.5796 36.812 29.5796 36.644L29.6076 36.504C30.3916 36.6347 31.1756 36.7373 31.9596 36.812C32.7436 36.9053 33.5276 36.952 34.3116 36.952C34.909 36.952 35.497 36.9147 36.0756 36.84C36.6543 36.7653 37.233 36.672 37.8116 36.56C36.7663 36.7467 35.6743 36.84 34.5356 36.84C33.733 36.84 32.9303 36.8027 32.1276 36.728C31.3436 36.6533 30.5596 36.5507 29.7756 36.42L29.9156 36.084L29.8596 35.888C29.8036 35.9067 29.7196 35.916 29.6076 35.916C29.421 35.916 29.2063 35.8787 28.9636 35.804C28.721 35.7293 28.4876 35.636 28.2636 35.524C28.0583 35.412 27.881 35.2813 27.7316 35.132C27.5823 34.9827 27.5076 34.8333 27.5076 34.684C27.5076 34.5907 27.5823 34.516 27.7316 34.46C27.881 34.404 28.049 34.3667 28.2356 34.348C28.441 34.3107 28.637 34.2827 28.8236 34.264C29.0103 34.2453 29.141 34.2267 29.2156 34.208L29.2436 33.396ZM32.0436 20.124C32.081 20.236 32.1183 20.4787 32.1556 20.852C32.2116 21.2067 32.2583 21.6267 32.2956 22.112C32.3516 22.5973 32.3983 23.12 32.4356 23.68C32.473 24.24 32.501 24.7813 32.5196 25.304C32.557 25.808 32.585 26.2653 32.6036 26.676C32.6223 27.068 32.6316 27.348 32.6316 27.516C32.6316 28.5053 32.5943 29.4947 32.5196 30.484C32.445 31.4547 32.4076 32.4347 32.4076 33.424C32.4076 33.7973 32.529 34.0307 32.7716 34.124C33.033 34.2173 33.313 34.264 33.6116 34.264C34.5076 34.264 35.3943 34.236 36.2716 34.18C37.149 34.1053 38.0076 33.9093 38.8476 33.592L38.9316 33.928C39.305 33.7413 39.6316 33.5173 39.9116 33.256C40.2103 32.976 40.3596 32.612 40.3596 32.164C40.3596 31.66 40.201 31.2307 39.8836 30.876C39.5663 30.5027 39.1743 30.204 38.7076 29.98C38.2596 29.756 37.7743 29.588 37.2516 29.476C36.7476 29.364 36.2996 29.308 35.9076 29.308C35.8703 29.308 35.7956 29.336 35.6836 29.392C35.5716 29.4293 35.4876 29.4573 35.4316 29.476C35.693 29.4947 36.0196 29.5413 36.4116 29.616C36.8036 29.6907 37.205 29.7933 37.6156 29.924C38.0263 30.036 38.4183 30.1853 38.7916 30.372C39.165 30.5587 39.473 30.764 39.7156 30.988C39.361 30.708 38.8756 30.4747 38.2596 30.288C37.625 30.1013 36.9716 29.952 36.2996 29.84C35.6463 29.728 35.0396 29.644 34.4796 29.588C33.9196 29.5133 33.537 29.4573 33.3316 29.42L33.1916 26.312H33.2476C33.733 26.312 34.237 26.228 34.7596 26.06C35.301 25.8733 35.7956 25.6213 36.2436 25.304C36.6916 24.968 37.065 24.576 37.3636 24.128C37.6623 23.6613 37.8116 23.1573 37.8116 22.616C37.8116 22.0933 37.6996 21.664 37.4756 21.328C37.2516 20.992 36.953 20.7307 36.5796 20.544C36.225 20.3387 35.8236 20.208 35.3756 20.152C34.9276 20.0773 34.489 20.04 34.0596 20.04C33.7236 20.04 33.3876 20.0587 33.0516 20.096C32.7156 20.1147 32.3796 20.124 32.0436 20.124ZM32.4356 34.852C32.753 34.8893 33.0516 34.9173 33.3316 34.936C33.6303 34.9547 33.9383 34.964 34.2556 34.964C34.5543 34.964 34.9183 34.9547 35.3476 34.936C35.7956 34.8987 36.2623 34.8427 36.7476 34.768C37.2516 34.6933 37.7463 34.5907 38.2316 34.46C38.7356 34.3293 39.1836 34.1613 39.5756 33.956C39.9676 33.7507 40.285 33.4987 40.5276 33.2C40.789 32.9013 40.9196 32.5467 40.9196 32.136C40.9196 31.912 40.8823 31.6973 40.8076 31.492C40.733 31.2867 40.6303 31.0907 40.4996 30.904C40.593 31.0533 40.6676 31.2213 40.7236 31.408C40.7983 31.576 40.8356 31.7533 40.8356 31.94C40.8356 32.5747 40.621 33.0787 40.1916 33.452C39.7623 33.8253 39.2396 34.1147 38.6236 34.32C38.0263 34.5067 37.401 34.628 36.7476 34.684C36.0943 34.74 35.5343 34.768 35.0676 34.768C34.6383 34.768 34.1996 34.7587 33.7516 34.74C33.3223 34.7027 32.893 34.6653 32.4636 34.628L32.4356 34.852ZM29.9156 34.404C29.953 33.7507 29.9716 33.088 29.9716 32.416V30.428C29.9716 30.0547 29.9623 29.6907 29.9436 29.336C29.925 29 29.897 28.664 29.8596 28.328C29.8596 28.8133 29.8596 29.2987 29.8596 29.784C29.8783 30.288 29.8876 30.792 29.8876 31.296C29.8876 31.8187 29.8783 32.332 29.8596 32.836C29.841 33.34 29.7943 33.844 29.7196 34.348L29.9156 34.404ZM35.2076 26.396C35.5436 26.1907 35.861 25.976 36.1596 25.752C36.477 25.528 36.7663 25.2667 37.0276 24.968C36.9343 24.968 36.8876 24.9307 36.8876 24.856C36.309 25.4907 35.5903 25.9853 34.7316 26.34L35.2076 26.396ZM36.6636 29C37.2236 29.0933 37.821 29.2707 38.4556 29.532C38.997 29.756 39.4823 30.0173 39.9116 30.316C39.501 29.98 39.0156 29.6907 38.4556 29.448C37.8396 29.1493 37.2516 29 36.6916 29H36.6636ZM30.2796 20.74L30.4756 20.292L30.0276 20.348C30.0276 20.3853 30.0276 20.4227 30.0276 20.46C30.0463 20.4787 30.0556 20.5067 30.0556 20.544C30.0556 20.5813 30.0463 20.6187 30.0276 20.656C30.0276 20.6747 30.0276 20.7027 30.0276 20.74H30.2796ZM42.5716 33.536C42.7583 33.0507 42.8516 32.5933 42.8516 32.164V31.856C42.8516 31.744 42.8423 31.6413 42.8236 31.548C42.8236 32.1453 42.7583 32.7053 42.6276 33.228C42.5156 33.732 42.2636 34.208 41.8716 34.656C42.1703 34.3573 42.4036 33.984 42.5716 33.536ZM32.0716 28.944C31.997 29.2987 31.9503 29.6533 31.9316 30.008C31.913 30.3067 31.9036 30.6147 31.9036 30.932C31.9223 30.6333 31.9503 30.3347 31.9876 30.036C32.025 29.6813 32.053 29.3173 32.0716 28.944ZM41.8156 34.712C41.461 35.0853 41.069 35.384 40.6396 35.608C40.2103 35.832 39.7623 36.0373 39.2956 36.224C39.781 36.056 40.2383 35.86 40.6676 35.636C41.097 35.412 41.4796 35.104 41.8156 34.712ZM40.9476 28.44C41.1156 28.5893 41.2743 28.7387 41.4236 28.888L41.8156 29.28C41.7036 29.112 41.5823 28.9627 41.4516 28.832C41.321 28.6827 41.153 28.552 40.9476 28.44ZM31.9036 34.096V33.256C31.885 33.4053 31.8663 33.5453 31.8476 33.676C31.8476 33.8067 31.8476 33.9467 31.8476 34.096H31.9036ZM39.7716 31.044C40.0703 31.2867 40.2196 31.576 40.2196 31.912V31.968C40.1636 31.632 40.0143 31.324 39.7716 31.044ZM39.6876 33.116C39.5196 33.284 39.3143 33.4147 39.0716 33.508L39.6876 33.116ZM31.7916 34.768H31.9036V34.572H31.7916V34.768ZM40.0236 32.64C40.005 32.64 39.9956 32.6213 39.9956 32.584C39.9956 32.5467 40.005 32.5 40.0236 32.444C40.061 32.3693 40.0983 32.3133 40.1356 32.276L40.0236 32.64ZM40.2196 32.136C40.2196 32.1547 40.201 32.1827 40.1636 32.22L40.2196 32.108V32.136Z" fill="white"/>
<path d="M82.968 16.4C83.416 16.4 83.78 16.5493 84.06 16.848C84.34 17.1467 84.48 17.52 84.48 17.968V34.292C84.48 34.7773 84.312 35.188 83.976 35.524C83.6587 35.8413 83.2573 36 82.772 36C82.5293 36 82.2773 35.9627 82.016 35.888C81.7733 35.7947 81.5867 35.6733 81.456 35.524L70.452 21.552L71.18 21.104V34.432C71.18 34.88 71.0307 35.2533 70.732 35.552C70.452 35.8507 70.0787 36 69.612 36C69.164 36 68.8 35.8507 68.52 35.552C68.24 35.2533 68.1 34.88 68.1 34.432V18.108C68.1 17.6227 68.2587 17.2213 68.576 16.904C68.912 16.568 69.3227 16.4 69.808 16.4C70.0693 16.4 70.34 16.456 70.62 16.568C70.9 16.6613 71.1053 16.8107 71.236 17.016L81.904 30.624L81.428 30.96V17.968C81.428 17.52 81.568 17.1467 81.848 16.848C82.128 16.5493 82.5013 16.4 82.968 16.4ZM97.4538 16.4C99.2458 16.4 100.581 16.82 101.458 17.66C102.335 18.5 102.774 19.7413 102.774 21.384C102.774 22.2613 102.559 23.036 102.13 23.708C101.701 24.3613 101.066 24.8747 100.226 25.248C99.3858 25.6027 98.3498 25.78 97.1178 25.78L97.2298 24.52C97.8085 24.52 98.4712 24.604 99.2178 24.772C99.9645 24.9213 100.683 25.2013 101.374 25.612C102.083 26.004 102.662 26.564 103.11 27.292C103.577 28.0013 103.81 28.916 103.81 30.036C103.81 31.268 103.605 32.276 103.194 33.06C102.802 33.844 102.279 34.4507 101.626 34.88C100.973 35.3093 100.273 35.608 99.5258 35.776C98.7792 35.9253 98.0605 36 97.3698 36H90.3978C89.9125 36 89.5018 35.8413 89.1658 35.524C88.8485 35.188 88.6898 34.7773 88.6898 34.292V18.108C88.6898 17.6227 88.8485 17.2213 89.1658 16.904C89.5018 16.568 89.9125 16.4 90.3978 16.4H97.4538ZM96.9498 19.704H91.9658L92.3298 19.256V24.324L91.9938 24.072H97.0338C97.5752 24.072 98.0605 23.8947 98.4898 23.54C98.9192 23.1853 99.1338 22.672 99.1338 22C99.1338 21.1973 98.9285 20.6187 98.5178 20.264C98.1258 19.8907 97.6032 19.704 96.9498 19.704ZM97.1738 27.376H92.0778L92.3298 27.152V33.06L92.0498 32.78H97.3698C98.2285 32.78 98.9098 32.556 99.4138 32.108C99.9178 31.6413 100.17 30.9507 100.17 30.036C100.17 29.196 100.002 28.5893 99.6658 28.216C99.3298 27.8427 98.9285 27.6093 98.4618 27.516C97.9952 27.4227 97.5658 27.376 97.1738 27.376ZM121.262 28.524C121.262 30.0547 120.917 31.408 120.226 32.584C119.554 33.7413 118.639 34.6467 117.482 35.3C116.343 35.9533 115.065 36.28 113.646 36.28C112.227 36.28 110.939 35.9533 109.782 35.3C108.643 34.6467 107.729 33.7413 107.038 32.584C106.366 31.408 106.03 30.0547 106.03 28.524C106.03 26.9933 106.366 25.6493 107.038 24.492C107.729 23.316 108.643 22.4013 109.782 21.748C110.939 21.076 112.227 20.74 113.646 20.74C115.065 20.74 116.343 21.076 117.482 21.748C118.639 22.4013 119.554 23.316 120.226 24.492C120.917 25.6493 121.262 26.9933 121.262 28.524ZM117.902 28.524C117.902 27.572 117.706 26.7507 117.314 26.06C116.941 25.3507 116.427 24.8 115.774 24.408C115.139 24.016 114.43 23.82 113.646 23.82C112.862 23.82 112.143 24.016 111.49 24.408C110.855 24.8 110.342 25.3507 109.95 26.06C109.577 26.7507 109.39 27.572 109.39 28.524C109.39 29.4573 109.577 30.2787 109.95 30.988C110.342 31.6787 110.855 32.22 111.49 32.612C112.143 33.004 112.862 33.2 113.646 33.2C114.43 33.2 115.139 33.004 115.774 32.612C116.427 32.22 116.941 31.6787 117.314 30.988C117.706 30.2787 117.902 29.4573 117.902 28.524ZM127.983 36.28C127.983 37.344 127.777 38.2587 127.367 39.024C126.956 39.808 126.405 40.4147 125.715 40.844C125.024 41.2733 124.249 41.488 123.391 41.488C122.924 41.488 122.551 41.3293 122.271 41.012C121.972 40.7133 121.823 40.3493 121.823 39.92V39.612C121.823 39.2013 121.963 38.8747 122.243 38.632C122.504 38.3893 122.84 38.2027 123.251 38.072C123.699 37.9227 124.016 37.708 124.203 37.428C124.389 37.1667 124.501 36.8493 124.539 36.476C124.595 36.1027 124.623 35.7107 124.623 35.3V22.728C124.623 22.2427 124.781 21.8413 125.099 21.524C125.416 21.188 125.817 21.02 126.303 21.02C126.788 21.02 127.189 21.188 127.507 21.524C127.824 21.8413 127.983 22.2427 127.983 22.728V36.28ZM126.247 19.2C125.612 19.2 125.164 19.0973 124.903 18.892C124.641 18.6867 124.511 18.3227 124.511 17.8V17.268C124.511 16.7267 124.651 16.3627 124.931 16.176C125.229 15.9707 125.677 15.868 126.275 15.868C126.928 15.868 127.385 15.9707 127.647 16.176C127.908 16.3813 128.039 16.7453 128.039 17.268V17.8C128.039 18.3413 127.899 18.7147 127.619 18.92C127.339 19.1067 126.881 19.2 126.247 19.2ZM144.178 20.74C144.663 20.74 145.064 20.8987 145.382 21.216C145.699 21.5333 145.858 21.944 145.858 22.448V34.292C145.858 34.7773 145.699 35.188 145.382 35.524C145.064 35.8413 144.663 36 144.178 36C143.692 36 143.291 35.8413 142.974 35.524C142.656 35.188 142.498 34.7773 142.498 34.292V32.92L143.114 33.172C143.114 33.4147 142.983 33.7133 142.722 34.068C142.46 34.404 142.106 34.74 141.658 35.076C141.21 35.412 140.678 35.7013 140.062 35.944C139.464 36.168 138.811 36.28 138.102 36.28C136.814 36.28 135.647 35.9533 134.602 35.3C133.556 34.628 132.726 33.7133 132.11 32.556C131.512 31.38 131.214 30.036 131.214 28.524C131.214 26.9933 131.512 25.6493 132.11 24.492C132.726 23.316 133.547 22.4013 134.574 21.748C135.6 21.076 136.739 20.74 137.99 20.74C138.792 20.74 139.53 20.8613 140.202 21.104C140.874 21.3467 141.452 21.6547 141.938 22.028C142.442 22.4013 142.824 22.784 143.086 23.176C143.366 23.5493 143.506 23.8667 143.506 24.128L142.498 24.492V22.448C142.498 21.9627 142.656 21.5613 142.974 21.244C143.291 20.908 143.692 20.74 144.178 20.74ZM138.522 33.2C139.343 33.2 140.062 32.9947 140.678 32.584C141.294 32.1733 141.77 31.6133 142.106 30.904C142.46 30.1947 142.638 29.4013 142.638 28.524C142.638 27.628 142.46 26.8253 142.106 26.116C141.77 25.4067 141.294 24.8467 140.678 24.436C140.062 24.0253 139.343 23.82 138.522 23.82C137.719 23.82 137.01 24.0253 136.394 24.436C135.778 24.8467 135.292 25.4067 134.938 26.116C134.602 26.8253 134.434 27.628 134.434 28.524C134.434 29.4013 134.602 30.1947 134.938 30.904C135.292 31.6133 135.778 32.1733 136.394 32.584C137.01 32.9947 137.719 33.2 138.522 33.2ZM157.504 20.74C158.885 20.74 159.93 21.0293 160.64 21.608C161.368 22.1867 161.862 22.9613 162.124 23.932C162.404 24.884 162.544 25.948 162.544 27.124V34.292C162.544 34.7773 162.385 35.188 162.068 35.524C161.75 35.8413 161.349 36 160.864 36C160.378 36 159.977 35.8413 159.66 35.524C159.342 35.188 159.184 34.7773 159.184 34.292V27.124C159.184 26.508 159.1 25.9573 158.932 25.472C158.782 24.968 158.502 24.5667 158.092 24.268C157.681 23.9693 157.093 23.82 156.328 23.82C155.581 23.82 154.946 23.9693 154.424 24.268C153.92 24.5667 153.528 24.968 153.248 25.472C152.986 25.9573 152.856 26.508 152.856 27.124V34.292C152.856 34.7773 152.697 35.188 152.38 35.524C152.062 35.8413 151.661 36 151.176 36C150.69 36 150.289 35.8413 149.972 35.524C149.654 35.188 149.496 34.7773 149.496 34.292V22.728C149.496 22.2427 149.654 21.8413 149.972 21.524C150.289 21.188 150.69 21.02 151.176 21.02C151.661 21.02 152.062 21.188 152.38 21.524C152.697 21.8413 152.856 22.2427 152.856 22.728V23.932L152.436 23.848C152.604 23.5307 152.846 23.1947 153.164 22.84C153.481 22.4667 153.854 22.1213 154.284 21.804C154.713 21.4867 155.198 21.2347 155.74 21.048C156.281 20.8427 156.869 20.74 157.504 20.74Z" fill="#6366f1"/>
</svg>
