<svg width="165" height="48" viewBox="0 0 165 48" fill="none" xmlns="http://www.w3.org/2000/svg">
<rect width="46" height="46" rx="12" fill="#6366F1"/>
<g filter="url(#filter0_d_202_10)">
<path d="M80.968 14.4C81.416 14.4 81.78 14.5493 82.06 14.848C82.34 15.1467 82.48 15.52 82.48 15.968V32.292C82.48 32.7773 82.312 33.188 81.976 33.524C81.6587 33.8413 81.2573 34 80.772 34C80.5293 34 80.2773 33.9627 80.016 33.888C79.7733 33.7947 79.5867 33.6733 79.456 33.524L68.452 19.552L69.18 19.104V32.432C69.18 32.88 69.0307 33.2533 68.732 33.552C68.452 33.8507 68.0787 34 67.612 34C67.164 34 66.8 33.8507 66.52 33.552C66.24 33.2533 66.1 32.88 66.1 32.432V16.108C66.1 15.6227 66.2587 15.2213 66.576 14.904C66.912 14.568 67.3227 14.4 67.808 14.4C68.0693 14.4 68.34 14.456 68.62 14.568C68.9 14.6613 69.1053 14.8107 69.236 15.016L79.904 28.624L79.428 28.96V15.968C79.428 15.52 79.568 15.1467 79.848 14.848C80.128 14.5493 80.5013 14.4 80.968 14.4ZM95.4538 14.4C97.2458 14.4 98.5805 14.82 99.4578 15.66C100.335 16.5 100.774 17.7413 100.774 19.384C100.774 20.2613 100.559 21.036 100.13 21.708C99.7005 22.3613 99.0658 22.8747 98.2258 23.248C97.3858 23.6027 96.3498 23.78 95.1178 23.78L95.2298 22.52C95.8085 22.52 96.4712 22.604 97.2178 22.772C97.9645 22.9213 98.6832 23.2013 99.3738 23.612C100.083 24.004 100.662 24.564 101.11 25.292C101.577 26.0013 101.81 26.916 101.81 28.036C101.81 29.268 101.605 30.276 101.194 31.06C100.802 31.844 100.279 32.4507 99.6258 32.88C98.9725 33.3093 98.2725 33.608 97.5258 33.776C96.7792 33.9253 96.0605 34 95.3698 34H88.3978C87.9125 34 87.5018 33.8413 87.1658 33.524C86.8485 33.188 86.6898 32.7773 86.6898 32.292V16.108C86.6898 15.6227 86.8485 15.2213 87.1658 14.904C87.5018 14.568 87.9125 14.4 88.3978 14.4H95.4538ZM94.9498 17.704H89.9658L90.3298 17.256V22.324L89.9938 22.072H95.0338C95.5752 22.072 96.0605 21.8947 96.4898 21.54C96.9192 21.1853 97.1338 20.672 97.1338 20C97.1338 19.1973 96.9285 18.6187 96.5178 18.264C96.1258 17.8907 95.6032 17.704 94.9498 17.704ZM95.1738 25.376H90.0778L90.3298 25.152V31.06L90.0498 30.78H95.3698C96.2285 30.78 96.9098 30.556 97.4138 30.108C97.9178 29.6413 98.1698 28.9507 98.1698 28.036C98.1698 27.196 98.0018 26.5893 97.6658 26.216C97.3298 25.8427 96.9285 25.6093 96.4618 25.516C95.9952 25.4227 95.5658 25.376 95.1738 25.376ZM119.262 26.524C119.262 28.0547 118.917 29.408 118.226 30.584C117.554 31.7413 116.639 32.6467 115.482 33.3C114.343 33.9533 113.065 34.28 111.646 34.28C110.227 34.28 108.939 33.9533 107.782 33.3C106.643 32.6467 105.729 31.7413 105.038 30.584C104.366 29.408 104.03 28.0547 104.03 26.524C104.03 24.9933 104.366 23.6493 105.038 22.492C105.729 21.316 106.643 20.4013 107.782 19.748C108.939 19.076 110.227 18.74 111.646 18.74C113.065 18.74 114.343 19.076 115.482 19.748C116.639 20.4013 117.554 21.316 118.226 22.492C118.917 23.6493 119.262 24.9933 119.262 26.524ZM115.902 26.524C115.902 25.572 115.706 24.7507 115.314 24.06C114.941 23.3507 114.427 22.8 113.774 22.408C113.139 22.016 112.43 21.82 111.646 21.82C110.862 21.82 110.143 22.016 109.49 22.408C108.855 22.8 108.342 23.3507 107.95 24.06C107.577 24.7507 107.39 25.572 107.39 26.524C107.39 27.4573 107.577 28.2787 107.95 28.988C108.342 29.6787 108.855 30.22 109.49 30.612C110.143 31.004 110.862 31.2 111.646 31.2C112.43 31.2 113.139 31.004 113.774 30.612C114.427 30.22 114.941 29.6787 115.314 28.988C115.706 28.2787 115.902 27.4573 115.902 26.524ZM125.983 34.28C125.983 35.344 125.777 36.2587 125.367 37.024C124.956 37.808 124.405 38.4147 123.715 38.844C123.024 39.2733 122.249 39.488 121.391 39.488C120.924 39.488 120.551 39.3293 120.271 39.012C119.972 38.7133 119.823 38.3493 119.823 37.92V37.612C119.823 37.2013 119.963 36.8747 120.243 36.632C120.504 36.3893 120.84 36.2027 121.251 36.072C121.699 35.9227 122.016 35.708 122.203 35.428C122.389 35.1667 122.501 34.8493 122.539 34.476C122.595 34.1027 122.623 33.7107 122.623 33.3V20.728C122.623 20.2427 122.781 19.8413 123.099 19.524C123.416 19.188 123.817 19.02 124.303 19.02C124.788 19.02 125.189 19.188 125.507 19.524C125.824 19.8413 125.983 20.2427 125.983 20.728V34.28ZM124.247 17.2C123.612 17.2 123.164 17.0973 122.903 16.892C122.641 16.6867 122.511 16.3227 122.511 15.8V15.268C122.511 14.7267 122.651 14.3627 122.931 14.176C123.229 13.9707 123.677 13.868 124.275 13.868C124.928 13.868 125.385 13.9707 125.647 14.176C125.908 14.3813 126.039 14.7453 126.039 15.268V15.8C126.039 16.3413 125.899 16.7147 125.619 16.92C125.339 17.1067 124.881 17.2 124.247 17.2ZM142.178 18.74C142.663 18.74 143.064 18.8987 143.382 19.216C143.699 19.5333 143.858 19.944 143.858 20.448V32.292C143.858 32.7773 143.699 33.188 143.382 33.524C143.064 33.8413 142.663 34 142.178 34C141.692 34 141.291 33.8413 140.974 33.524C140.656 33.188 140.498 32.7773 140.498 32.292V30.92L141.114 31.172C141.114 31.4147 140.983 31.7133 140.722 32.068C140.46 32.404 140.106 32.74 139.658 33.076C139.21 33.412 138.678 33.7013 138.062 33.944C137.464 34.168 136.811 34.28 136.102 34.28C134.814 34.28 133.647 33.9533 132.602 33.3C131.556 32.628 130.726 31.7133 130.11 30.556C129.512 29.38 129.214 28.036 129.214 26.524C129.214 24.9933 129.512 23.6493 130.11 22.492C130.726 21.316 131.547 20.4013 132.574 19.748C133.6 19.076 134.739 18.74 135.99 18.74C136.792 18.74 137.53 18.8613 138.202 19.104C138.874 19.3467 139.452 19.6547 139.938 20.028C140.442 20.4013 140.824 20.784 141.086 21.176C141.366 21.5493 141.506 21.8667 141.506 22.128L140.498 22.492V20.448C140.498 19.9627 140.656 19.5613 140.974 19.244C141.291 18.908 141.692 18.74 142.178 18.74ZM136.522 31.2C137.343 31.2 138.062 30.9947 138.678 30.584C139.294 30.1733 139.77 29.6133 140.106 28.904C140.46 28.1947 140.638 27.4013 140.638 26.524C140.638 25.628 140.46 24.8253 140.106 24.116C139.77 23.4067 139.294 22.8467 138.678 22.436C138.062 22.0253 137.343 21.82 136.522 21.82C135.719 21.82 135.01 22.0253 134.394 22.436C133.778 22.8467 133.292 23.4067 132.938 24.116C132.602 24.8253 132.434 25.628 132.434 26.524C132.434 27.4013 132.602 28.1947 132.938 28.904C133.292 29.6133 133.778 30.1733 134.394 30.584C135.01 30.9947 135.719 31.2 136.522 31.2ZM155.504 18.74C156.885 18.74 157.93 19.0293 158.64 19.608C159.368 20.1867 159.862 20.9613 160.124 21.932C160.404 22.884 160.544 23.948 160.544 25.124V32.292C160.544 32.7773 160.385 33.188 160.068 33.524C159.75 33.8413 159.349 34 158.864 34C158.378 34 157.977 33.8413 157.66 33.524C157.342 33.188 157.184 32.7773 157.184 32.292V25.124C157.184 24.508 157.1 23.9573 156.932 23.472C156.782 22.968 156.502 22.5667 156.092 22.268C155.681 21.9693 155.093 21.82 154.328 21.82C153.581 21.82 152.946 21.9693 152.424 22.268C151.92 22.5667 151.528 22.968 151.248 23.472C150.986 23.9573 150.856 24.508 150.856 25.124V32.292C150.856 32.7773 150.697 33.188 150.38 33.524C150.062 33.8413 149.661 34 149.176 34C148.69 34 148.289 33.8413 147.972 33.524C147.654 33.188 147.496 32.7773 147.496 32.292V20.728C147.496 20.2427 147.654 19.8413 147.972 19.524C148.289 19.188 148.69 19.02 149.176 19.02C149.661 19.02 150.062 19.188 150.38 19.524C150.697 19.8413 150.856 20.2427 150.856 20.728V21.932L150.436 21.848C150.604 21.5307 150.846 21.1947 151.164 20.84C151.481 20.4667 151.854 20.1213 152.284 19.804C152.713 19.4867 153.198 19.2347 153.74 19.048C154.281 18.8427 154.869 18.74 155.504 18.74Z" fill="#6366F1"/>
</g>
<path d="M21.032 14.624C21.1813 14.624 21.2653 14.7173 21.284 14.904C21.3213 15.072 21.34 15.24 21.34 15.408L21.312 15.604C21.2933 15.716 21.2653 15.8653 21.228 16.052C21.1907 16.22 21.144 16.4067 21.088 16.612C21.0507 16.8173 20.9947 17.004 20.92 17.172C20.6587 17.9933 20.444 18.8053 20.276 19.608C20.1267 20.4107 20.0053 21.2227 19.912 22.044C19.8187 22.8467 19.744 23.6587 19.688 24.48C19.632 25.3013 19.576 26.132 19.52 26.972C19.5947 26.2067 19.66 25.404 19.716 24.564C19.7907 23.724 19.884 22.884 19.996 22.044C20.108 21.1853 20.248 20.3547 20.416 19.552C20.6027 18.7307 20.8547 17.9653 21.172 17.256C20.892 19.048 20.6587 20.8307 20.472 22.604C20.304 24.3773 20.164 26.1693 20.052 27.98L19.716 28.148C19.716 29.2867 19.604 30.3787 19.38 31.424C19.156 32.4507 18.904 33.5147 18.624 34.616C18.5307 34.616 18.4187 34.616 18.288 34.616C18.176 34.6347 18.064 34.644 17.952 34.644C17.8587 34.644 17.728 34.616 17.56 34.56C17.392 34.504 17.2147 34.4293 17.028 34.336C16.8413 34.2613 16.6453 34.168 16.44 34.056C16.2533 33.9627 16.0947 33.8693 15.964 33.776C15.1613 33.2533 14.4427 32.6093 13.808 31.844C13.1733 31.06 12.604 30.2013 12.1 29.268C11.596 28.3347 11.148 27.3547 10.756 26.328C10.364 25.2827 9.99067 24.2373 9.636 23.192C9.3 22.1467 8.97333 21.1293 8.656 20.14C8.33867 19.132 8.02133 18.208 7.704 17.368L7.536 17.508C7.85333 18.4413 8.16133 19.4587 8.46 20.56C8.77733 21.6427 9.104 22.7533 9.44 23.892C9.79467 25.012 10.1867 26.1227 10.616 27.224C11.064 28.3253 11.5773 29.352 12.156 30.304C12.7533 31.256 13.444 32.1053 14.228 32.852C15.012 33.58 15.9267 34.1493 16.972 34.56C16.076 34.3173 15.2733 33.9067 14.564 33.328C13.8733 32.7307 13.2387 32.0307 12.66 31.228C12.1 30.4253 11.596 29.5573 11.148 28.624C10.7187 27.672 10.3267 26.7107 9.972 25.74C9.61733 24.7693 9.3 23.8173 9.02 22.884C8.74 21.9507 8.47867 21.1013 8.236 20.336C8.236 21.12 8.27333 21.8853 8.348 22.632C8.44133 23.3787 8.488 24.1347 8.488 24.9C8.488 26.188 8.52533 27.4853 8.6 28.792C8.67467 30.08 8.74933 31.368 8.824 32.656L8.208 32.768C8.05867 32.768 7.94667 32.6467 7.872 32.404C7.79733 32.1427 7.74133 31.8533 7.704 31.536C7.66667 31.2187 7.63867 30.92 7.62 30.64C7.62 30.3413 7.62 30.1547 7.62 30.08H7.284C7.284 30.2293 7.27467 30.528 7.256 30.976C7.256 31.4053 7.228 31.8533 7.172 32.32C7.116 32.7867 7.02267 33.2067 6.892 33.58C6.78 33.9533 6.612 34.14 6.388 34.14C6.23867 34.14 6.09867 33.8973 5.968 33.412C5.83733 32.908 5.70667 32.2547 5.576 31.452C5.44533 30.6307 5.324 29.7067 5.212 28.68C5.1 27.6347 5.00667 26.58 4.932 25.516C4.85733 24.452 4.792 23.416 4.736 22.408C4.69867 21.4 4.68 20.5133 4.68 19.748C4.68 18.7587 4.74533 17.7787 4.876 16.808C5.02533 15.8373 5.25867 14.876 5.576 13.924L8.656 13.336C8.74933 13.4667 8.83333 13.588 8.908 13.7C8.98267 13.7933 9.06667 13.896 9.16 14.008C9.70133 14.792 10.168 15.6507 10.56 16.584C10.952 17.4987 11.3067 18.46 11.624 19.468C11.9413 20.4573 12.24 21.4653 12.52 22.492C12.8187 23.5 13.1453 24.4893 13.5 25.46C13.8547 26.412 14.2653 27.3173 14.732 28.176C15.1987 29.0347 15.768 29.8 16.44 30.472C16.5147 29.9307 16.58 29.212 16.636 28.316C16.7107 27.42 16.7853 26.4587 16.86 25.432C16.9533 24.4053 17.0467 23.3787 17.14 22.352C17.2333 21.3067 17.3453 20.364 17.476 19.524C17.6253 18.6653 17.7933 17.9747 17.98 17.452C18.1853 16.9107 18.4187 16.64 18.68 16.64L18.848 16.752C18.456 17.9093 18.1853 19.076 18.036 20.252C17.9053 21.428 17.8027 22.6133 17.728 23.808C17.672 25.0027 17.5973 26.1973 17.504 27.392C17.4293 28.568 17.252 29.7347 16.972 30.892L17.14 30.976C17.1587 30.808 17.1773 30.64 17.196 30.472C17.2147 30.2853 17.2427 30.108 17.28 29.94C17.4293 28.8573 17.532 27.7747 17.588 26.692C17.6627 25.5907 17.7373 24.4893 17.812 23.388C17.9053 22.2867 18.0267 21.1947 18.176 20.112C18.344 19.0293 18.596 17.9653 18.932 16.92L19.212 17.116C19.324 17.0413 19.4267 16.8733 19.52 16.612C19.6133 16.332 19.7253 16.052 19.856 15.772C19.9867 15.4733 20.1453 15.212 20.332 14.988C20.5187 14.7453 20.752 14.624 21.032 14.624ZM18.176 34.392C18.3813 33.72 18.568 33.048 18.736 32.376C18.904 31.704 19.0347 31.0133 19.128 30.304C19.016 30.976 18.8667 31.6387 18.68 32.292C18.512 32.9267 18.344 33.5707 18.176 34.224C17.056 33.832 16.1413 33.4027 15.432 32.936C14.7413 32.4693 14.1533 31.9373 13.668 31.34C13.2013 30.7427 12.7813 30.0707 12.408 29.324C12.1093 28.7453 11.7827 28.1013 11.428 27.392C11.652 27.8587 11.848 28.288 12.016 28.68C12.2773 29.2213 12.5293 29.7253 12.772 30.192C13.0333 30.64 13.304 31.0507 13.584 31.424C13.864 31.7787 14.2093 32.124 14.62 32.46C15.0307 32.7773 15.516 33.0947 16.076 33.412C16.6547 33.7107 17.3547 34.0373 18.176 34.392ZM16.888 31.592C16.7013 31.4613 16.4587 31.2093 16.16 30.836C15.88 30.4627 15.5907 30.08 15.292 29.688C15.012 29.2773 14.76 28.9133 14.536 28.596C14.312 28.2787 14.1813 28.1107 14.144 28.092C14.4427 28.7827 14.8253 29.4173 15.292 29.996C15.7773 30.556 16.2813 31.088 16.804 31.592H16.888ZM27.2436 31.396V30.528L27.6076 30.304C27.5516 29.9867 27.5143 29.6787 27.4956 29.38C27.477 29.0627 27.4676 28.7453 27.4676 28.428C27.4676 28.0733 27.4676 27.728 27.4676 27.392C27.4863 27.0373 27.4956 26.6733 27.4956 26.3C27.4956 25.908 27.477 25.516 27.4396 25.124C27.4023 24.732 27.337 24.34 27.2436 23.948H27.0756C27.0943 24.9373 27.1223 25.908 27.1596 26.86C27.2156 27.812 27.2436 28.7827 27.2436 29.772C27.1503 28.3533 27.0383 26.9347 26.9076 25.516C26.7956 24.0973 26.7396 22.66 26.7396 21.204C26.7396 20.7747 26.7583 20.3453 26.7956 19.916C26.8516 19.468 26.9076 19.0293 26.9636 18.6L25.1156 19.076L25.1436 18.992C25.1063 18.936 25.0503 18.8333 24.9756 18.684C24.9196 18.5347 24.8916 18.4413 24.8916 18.404C24.8916 18.3107 24.985 18.2173 25.1716 18.124C25.377 18.012 25.601 17.9187 25.8436 17.844C26.105 17.7693 26.3476 17.704 26.5716 17.648C26.8143 17.592 26.9823 17.5547 27.0756 17.536L26.9916 17.2C26.8423 17.2373 26.5343 17.284 26.0676 17.34C25.6196 17.3773 25.1623 17.396 24.6956 17.396C24.3223 17.396 23.9956 17.368 23.7156 17.312C23.4356 17.256 23.2956 17.1347 23.2956 16.948C23.2956 16.7427 23.4823 16.5373 23.8556 16.332C24.229 16.1267 24.705 15.94 25.2836 15.772C25.881 15.5853 26.5343 15.4173 27.2436 15.268C27.953 15.1187 28.6343 14.988 29.2876 14.876C29.941 14.764 30.529 14.68 31.0516 14.624C31.5743 14.568 31.9383 14.54 32.1436 14.54C33.0956 14.54 34.001 14.6613 34.8596 14.904C35.737 15.128 36.5023 15.492 37.1556 15.996C37.809 16.4813 38.3223 17.1067 38.6956 17.872C39.0876 18.6373 39.2836 19.5427 39.2836 20.588C39.2836 21.0173 39.2183 21.4653 39.0876 21.932C38.957 22.38 38.7516 22.8187 38.4716 23.248C38.2103 23.6587 37.865 24.032 37.4356 24.368C37.025 24.704 36.5303 24.9467 35.9516 25.096C36.9223 25.2267 37.753 25.4507 38.4436 25.768C39.153 26.0853 39.7223 26.468 40.1516 26.916C40.5996 27.364 40.9263 27.868 41.1316 28.428C41.337 28.988 41.4396 29.5853 41.4396 30.22C41.4396 31.0413 41.2716 31.7413 40.9356 32.32C40.6183 32.8987 40.189 33.384 39.6476 33.776C39.1063 34.168 38.4903 34.4667 37.7996 34.672C37.109 34.896 36.3903 35.064 35.6436 35.176C34.897 35.288 34.1596 35.3533 33.4316 35.372C32.7036 35.4093 32.041 35.428 31.4436 35.428C31.2943 35.428 31.005 35.4187 30.5756 35.4C30.165 35.3813 29.7356 35.344 29.2876 35.288C28.8396 35.232 28.4383 35.148 28.0836 35.036C27.7476 34.9427 27.5796 34.812 27.5796 34.644L27.6076 34.504C28.3916 34.6347 29.1756 34.7373 29.9596 34.812C30.7436 34.9053 31.5276 34.952 32.3116 34.952C32.909 34.952 33.497 34.9147 34.0756 34.84C34.6543 34.7653 35.233 34.672 35.8116 34.56C34.7663 34.7467 33.6743 34.84 32.5356 34.84C31.733 34.84 30.9303 34.8027 30.1276 34.728C29.3436 34.6533 28.5596 34.5507 27.7756 34.42L27.9156 34.084L27.8596 33.888C27.8036 33.9067 27.7196 33.916 27.6076 33.916C27.421 33.916 27.2063 33.8787 26.9636 33.804C26.721 33.7293 26.4876 33.636 26.2636 33.524C26.0583 33.412 25.881 33.2813 25.7316 33.132C25.5823 32.9827 25.5076 32.8333 25.5076 32.684C25.5076 32.5907 25.5823 32.516 25.7316 32.46C25.881 32.404 26.049 32.3667 26.2356 32.348C26.441 32.3107 26.637 32.2827 26.8236 32.264C27.0103 32.2453 27.141 32.2267 27.2156 32.208L27.2436 31.396ZM30.0436 18.124C30.081 18.236 30.1183 18.4787 30.1556 18.852C30.2116 19.2067 30.2583 19.6267 30.2956 20.112C30.3516 20.5973 30.3983 21.12 30.4356 21.68C30.473 22.24 30.501 22.7813 30.5196 23.304C30.557 23.808 30.585 24.2653 30.6036 24.676C30.6223 25.068 30.6316 25.348 30.6316 25.516C30.6316 26.5053 30.5943 27.4947 30.5196 28.484C30.445 29.4547 30.4076 30.4347 30.4076 31.424C30.4076 31.7973 30.529 32.0307 30.7716 32.124C31.033 32.2173 31.313 32.264 31.6116 32.264C32.5076 32.264 33.3943 32.236 34.2716 32.18C35.149 32.1053 36.0076 31.9093 36.8476 31.592L36.9316 31.928C37.305 31.7413 37.6316 31.5173 37.9116 31.256C38.2103 30.976 38.3596 30.612 38.3596 30.164C38.3596 29.66 38.201 29.2307 37.8836 28.876C37.5663 28.5027 37.1743 28.204 36.7076 27.98C36.2596 27.756 35.7743 27.588 35.2516 27.476C34.7476 27.364 34.2996 27.308 33.9076 27.308C33.8703 27.308 33.7956 27.336 33.6836 27.392C33.5716 27.4293 33.4876 27.4573 33.4316 27.476C33.693 27.4947 34.0196 27.5413 34.4116 27.616C34.8036 27.6907 35.205 27.7933 35.6156 27.924C36.0263 28.036 36.4183 28.1853 36.7916 28.372C37.165 28.5587 37.473 28.764 37.7156 28.988C37.361 28.708 36.8756 28.4747 36.2596 28.288C35.625 28.1013 34.9716 27.952 34.2996 27.84C33.6463 27.728 33.0396 27.644 32.4796 27.588C31.9196 27.5133 31.537 27.4573 31.3316 27.42L31.1916 24.312H31.2476C31.733 24.312 32.237 24.228 32.7596 24.06C33.301 23.8733 33.7956 23.6213 34.2436 23.304C34.6916 22.968 35.065 22.576 35.3636 22.128C35.6623 21.6613 35.8116 21.1573 35.8116 20.616C35.8116 20.0933 35.6996 19.664 35.4756 19.328C35.2516 18.992 34.953 18.7307 34.5796 18.544C34.225 18.3387 33.8236 18.208 33.3756 18.152C32.9276 18.0773 32.489 18.04 32.0596 18.04C31.7236 18.04 31.3876 18.0587 31.0516 18.096C30.7156 18.1147 30.3796 18.124 30.0436 18.124ZM30.4356 32.852C30.753 32.8893 31.0516 32.9173 31.3316 32.936C31.6303 32.9547 31.9383 32.964 32.2556 32.964C32.5543 32.964 32.9183 32.9547 33.3476 32.936C33.7956 32.8987 34.2623 32.8427 34.7476 32.768C35.2516 32.6933 35.7463 32.5907 36.2316 32.46C36.7356 32.3293 37.1836 32.1613 37.5756 31.956C37.9676 31.7507 38.285 31.4987 38.5276 31.2C38.789 30.9013 38.9196 30.5467 38.9196 30.136C38.9196 29.912 38.8823 29.6973 38.8076 29.492C38.733 29.2867 38.6303 29.0907 38.4996 28.904C38.593 29.0533 38.6676 29.2213 38.7236 29.408C38.7983 29.576 38.8356 29.7533 38.8356 29.94C38.8356 30.5747 38.621 31.0787 38.1916 31.452C37.7623 31.8253 37.2396 32.1147 36.6236 32.32C36.0263 32.5067 35.401 32.628 34.7476 32.684C34.0943 32.74 33.5343 32.768 33.0676 32.768C32.6383 32.768 32.1996 32.7587 31.7516 32.74C31.3223 32.7027 30.893 32.6653 30.4636 32.628L30.4356 32.852ZM27.9156 32.404C27.953 31.7507 27.9716 31.088 27.9716 30.416V28.428C27.9716 28.0547 27.9623 27.6907 27.9436 27.336C27.925 27 27.897 26.664 27.8596 26.328C27.8596 26.8133 27.8596 27.2987 27.8596 27.784C27.8783 28.288 27.8876 28.792 27.8876 29.296C27.8876 29.8187 27.8783 30.332 27.8596 30.836C27.841 31.34 27.7943 31.844 27.7196 32.348L27.9156 32.404ZM33.2076 24.396C33.5436 24.1907 33.861 23.976 34.1596 23.752C34.477 23.528 34.7663 23.2667 35.0276 22.968C34.9343 22.968 34.8876 22.9307 34.8876 22.856C34.309 23.4907 33.5903 23.9853 32.7316 24.34L33.2076 24.396ZM34.6636 27C35.2236 27.0933 35.821 27.2707 36.4556 27.532C36.997 27.756 37.4823 28.0173 37.9116 28.316C37.501 27.98 37.0156 27.6907 36.4556 27.448C35.8396 27.1493 35.2516 27 34.6916 27H34.6636ZM28.2796 18.74L28.4756 18.292L28.0276 18.348C28.0276 18.3853 28.0276 18.4227 28.0276 18.46C28.0463 18.4787 28.0556 18.5067 28.0556 18.544C28.0556 18.5813 28.0463 18.6187 28.0276 18.656C28.0276 18.6747 28.0276 18.7027 28.0276 18.74H28.2796ZM40.5716 31.536C40.7583 31.0507 40.8516 30.5933 40.8516 30.164V29.856C40.8516 29.744 40.8423 29.6413 40.8236 29.548C40.8236 30.1453 40.7583 30.7053 40.6276 31.228C40.5156 31.732 40.2636 32.208 39.8716 32.656C40.1703 32.3573 40.4036 31.984 40.5716 31.536ZM30.0716 26.944C29.997 27.2987 29.9503 27.6533 29.9316 28.008C29.913 28.3067 29.9036 28.6147 29.9036 28.932C29.9223 28.6333 29.9503 28.3347 29.9876 28.036C30.025 27.6813 30.053 27.3173 30.0716 26.944ZM39.8156 32.712C39.461 33.0853 39.069 33.384 38.6396 33.608C38.2103 33.832 37.7623 34.0373 37.2956 34.224C37.781 34.056 38.2383 33.86 38.6676 33.636C39.097 33.412 39.4796 33.104 39.8156 32.712ZM38.9476 26.44C39.1156 26.5893 39.2743 26.7387 39.4236 26.888L39.8156 27.28C39.7036 27.112 39.5823 26.9627 39.4516 26.832C39.321 26.6827 39.153 26.552 38.9476 26.44ZM29.9036 32.096V31.256C29.885 31.4053 29.8663 31.5453 29.8476 31.676C29.8476 31.8067 29.8476 31.9467 29.8476 32.096H29.9036ZM37.7716 29.044C38.0703 29.2867 38.2196 29.576 38.2196 29.912V29.968C38.1636 29.632 38.0143 29.324 37.7716 29.044ZM37.6876 31.116C37.5196 31.284 37.3143 31.4147 37.0716 31.508L37.6876 31.116ZM29.7916 32.768H29.9036V32.572H29.7916V32.768ZM38.0236 30.64C38.005 30.64 37.9956 30.6213 37.9956 30.584C37.9956 30.5467 38.005 30.5 38.0236 30.444C38.061 30.3693 38.0983 30.3133 38.1356 30.276L38.0236 30.64ZM38.2196 30.136C38.2196 30.1547 38.201 30.1827 38.1636 30.22L38.2196 30.108V30.136Z" fill="white"/>
<defs>
<filter id="filter0_d_202_10" x="62.1" y="13.868" width="102.444" height="33.62" filterUnits="userSpaceOnUse" color-interpolation-filters="sRGB">
<feFlood flood-opacity="0" result="BackgroundImageFix"/>
<feColorMatrix in="SourceAlpha" type="matrix" values="0 0 0 0 0 0 0 0 0 0 0 0 0 0 0 0 0 0 127 0" result="hardAlpha"/>
<feOffset dy="4"/>
<feGaussianBlur stdDeviation="2"/>
<feComposite in2="hardAlpha" operator="out"/>
<feColorMatrix type="matrix" values="0 0 0 0 0 0 0 0 0 0 0 0 0 0 0 0 0 0 0.25 0"/>
<feBlend mode="normal" in2="BackgroundImageFix" result="effect1_dropShadow_202_10"/>
<feBlend mode="normal" in="SourceGraphic" in2="effect1_dropShadow_202_10" result="shape"/>
</filter>
</defs>
</svg>
