<svg width="170" height="50" viewBox="0 0 170 50" fill="none" xmlns="http://www.w3.org/2000/svg">
<rect width="50" height="50" rx="12" fill="#3B82F6"/>
<path d="M22.968 16.4C23.416 16.4 23.78 16.5493 24.06 16.848C24.34 17.1467 24.48 17.52 24.48 17.968V34.292C24.48 34.7773 24.312 35.188 23.976 35.524C23.6587 35.8413 23.2573 36 22.772 36C22.5293 36 22.2773 35.9627 22.016 35.888C21.7733 35.7947 21.5867 35.6733 21.456 35.524L10.452 21.552L11.18 21.104V34.432C11.18 34.88 11.0307 35.2533 10.732 35.552C10.452 35.8507 10.0787 36 9.612 36C9.164 36 8.8 35.8507 8.52 35.552C8.24 35.2533 8.1 34.88 8.1 34.432V18.108C8.1 17.6227 8.25867 17.2213 8.576 16.904C8.912 16.568 9.32267 16.4 9.808 16.4C10.0693 16.4 10.34 16.456 10.62 16.568C10.9 16.6613 11.1053 16.8107 11.236 17.016L21.904 30.624L21.428 30.96V17.968C21.428 17.52 21.568 17.1467 21.848 16.848C22.128 16.5493 22.5013 16.4 22.968 16.4ZM37.4538 16.4C39.2458 16.4 40.5805 16.82 41.4578 17.66C42.3352 18.5 42.7738 19.7413 42.7738 21.384C42.7738 22.2613 42.5592 23.036 42.1298 23.708C41.7005 24.3613 41.0658 24.8747 40.2258 25.248C39.3858 25.6027 38.3498 25.78 37.1178 25.78L37.2298 24.52C37.8085 24.52 38.4712 24.604 39.2178 24.772C39.9645 24.9213 40.6832 25.2013 41.3738 25.612C42.0832 26.004 42.6618 26.564 43.1098 27.292C43.5765 28.0013 43.8098 28.916 43.8098 30.036C43.8098 31.268 43.6045 32.276 43.1938 33.06C42.8018 33.844 42.2792 34.4507 41.6258 34.88C40.9725 35.3093 40.2725 35.608 39.5258 35.776C38.7792 35.9253 38.0605 36 37.3698 36H30.3978C29.9125 36 29.5018 35.8413 29.1658 35.524C28.8485 35.188 28.6898 34.7773 28.6898 34.292V18.108C28.6898 17.6227 28.8485 17.2213 29.1658 16.904C29.5018 16.568 29.9125 16.4 30.3978 16.4H37.4538ZM36.9498 19.704H31.9658L32.3298 19.256V24.324L31.9938 24.072H37.0338C37.5752 24.072 38.0605 23.8947 38.4898 23.54C38.9192 23.1853 39.1338 22.672 39.1338 22C39.1338 21.1973 38.9285 20.6187 38.5178 20.264C38.1258 19.8907 37.6032 19.704 36.9498 19.704ZM37.1738 27.376H32.0778L32.3298 27.152V33.06L32.0498 32.78H37.3698C38.2285 32.78 38.9098 32.556 39.4138 32.108C39.9178 31.6413 40.1698 30.9507 40.1698 30.036C40.1698 29.196 40.0018 28.5893 39.6658 28.216C39.3298 27.8427 38.9285 27.6093 38.4618 27.516C37.9952 27.4227 37.5658 27.376 37.1738 27.376Z" fill="white"/>
<path d="M82.968 16.4C83.416 16.4 83.78 16.5493 84.06 16.848C84.34 17.1467 84.48 17.52 84.48 17.968V34.292C84.48 34.7773 84.312 35.188 83.976 35.524C83.6587 35.8413 83.2573 36 82.772 36C82.5293 36 82.2773 35.9627 82.016 35.888C81.7733 35.7947 81.5867 35.6733 81.456 35.524L70.452 21.552L71.18 21.104V34.432C71.18 34.88 71.0307 35.2533 70.732 35.552C70.452 35.8507 70.0787 36 69.612 36C69.164 36 68.8 35.8507 68.52 35.552C68.24 35.2533 68.1 34.88 68.1 34.432V18.108C68.1 17.6227 68.2587 17.2213 68.576 16.904C68.912 16.568 69.3227 16.4 69.808 16.4C70.0693 16.4 70.34 16.456 70.62 16.568C70.9 16.6613 71.1053 16.8107 71.236 17.016L81.904 30.624L81.428 30.96V17.968C81.428 17.52 81.568 17.1467 81.848 16.848C82.128 16.5493 82.5013 16.4 82.968 16.4ZM97.4538 16.4C99.2458 16.4 100.581 16.82 101.458 17.66C102.335 18.5 102.774 19.7413 102.774 21.384C102.774 22.2613 102.559 23.036 102.13 23.708C101.701 24.3613 101.066 24.8747 100.226 25.248C99.3858 25.6027 98.3498 25.78 97.1178 25.78L97.2298 24.52C97.8085 24.52 98.4712 24.604 99.2178 24.772C99.9645 24.9213 100.683 25.2013 101.374 25.612C102.083 26.004 102.662 26.564 103.11 27.292C103.577 28.0013 103.81 28.916 103.81 30.036C103.81 31.268 103.605 32.276 103.194 33.06C102.802 33.844 102.279 34.4507 101.626 34.88C100.973 35.3093 100.273 35.608 99.5258 35.776C98.7792 35.9253 98.0605 36 97.3698 36H90.3978C89.9125 36 89.5018 35.8413 89.1658 35.524C88.8485 35.188 88.6898 34.7773 88.6898 34.292V18.108C88.6898 17.6227 88.8485 17.2213 89.1658 16.904C89.5018 16.568 89.9125 16.4 90.3978 16.4H97.4538ZM96.9498 19.704H91.9658L92.3298 19.256V24.324L91.9938 24.072H97.0338C97.5752 24.072 98.0605 23.8947 98.4898 23.54C98.9192 23.1853 99.1338 22.672 99.1338 22C99.1338 21.1973 98.9285 20.6187 98.5178 20.264C98.1258 19.8907 97.6032 19.704 96.9498 19.704ZM97.1738 27.376H92.0778L92.3298 27.152V33.06L92.0498 32.78H97.3698C98.2285 32.78 98.9098 32.556 99.4138 32.108C99.9178 31.6413 100.17 30.9507 100.17 30.036C100.17 29.196 100.002 28.5893 99.6658 28.216C99.3298 27.8427 98.9285 27.6093 98.4618 27.516C97.9952 27.4227 97.5658 27.376 97.1738 27.376ZM121.262 28.524C121.262 30.0547 120.917 31.408 120.226 32.584C119.554 33.7413 118.639 34.6467 117.482 35.3C116.343 35.9533 115.065 36.28 113.646 36.28C112.227 36.28 110.939 35.9533 109.782 35.3C108.643 34.6467 107.729 33.7413 107.038 32.584C106.366 31.408 106.03 30.0547 106.03 28.524C106.03 26.9933 106.366 25.6493 107.038 24.492C107.729 23.316 108.643 22.4013 109.782 21.748C110.939 21.076 112.227 20.74 113.646 20.74C115.065 20.74 116.343 21.076 117.482 21.748C118.639 22.4013 119.554 23.316 120.226 24.492C120.917 25.6493 121.262 26.9933 121.262 28.524ZM117.902 28.524C117.902 27.572 117.706 26.7507 117.314 26.06C116.941 25.3507 116.427 24.8 115.774 24.408C115.139 24.016 114.43 23.82 113.646 23.82C112.862 23.82 112.143 24.016 111.49 24.408C110.855 24.8 110.342 25.3507 109.95 26.06C109.577 26.7507 109.39 27.572 109.39 28.524C109.39 29.4573 109.577 30.2787 109.95 30.988C110.342 31.6787 110.855 32.22 111.49 32.612C112.143 33.004 112.862 33.2 113.646 33.2C114.43 33.2 115.139 33.004 115.774 32.612C116.427 32.22 116.941 31.6787 117.314 30.988C117.706 30.2787 117.902 29.4573 117.902 28.524ZM127.983 36.28C127.983 37.344 127.777 38.2587 127.367 39.024C126.956 39.808 126.405 40.4147 125.715 40.844C125.024 41.2733 124.249 41.488 123.391 41.488C122.924 41.488 122.551 41.3293 122.271 41.012C121.972 40.7133 121.823 40.3493 121.823 39.92V39.612C121.823 39.2013 121.963 38.8747 122.243 38.632C122.504 38.3893 122.84 38.2027 123.251 38.072C123.699 37.9227 124.016 37.708 124.203 37.428C124.389 37.1667 124.501 36.8493 124.539 36.476C124.595 36.1027 124.623 35.7107 124.623 35.3V22.728C124.623 22.2427 124.781 21.8413 125.099 21.524C125.416 21.188 125.817 21.02 126.303 21.02C126.788 21.02 127.189 21.188 127.507 21.524C127.824 21.8413 127.983 22.2427 127.983 22.728V36.28ZM126.247 19.2C125.612 19.2 125.164 19.0973 124.903 18.892C124.641 18.6867 124.511 18.3227 124.511 17.8V17.268C124.511 16.7267 124.651 16.3627 124.931 16.176C125.229 15.9707 125.677 15.868 126.275 15.868C126.928 15.868 127.385 15.9707 127.647 16.176C127.908 16.3813 128.039 16.7453 128.039 17.268V17.8C128.039 18.3413 127.899 18.7147 127.619 18.92C127.339 19.1067 126.881 19.2 126.247 19.2ZM144.178 20.74C144.663 20.74 145.064 20.8987 145.382 21.216C145.699 21.5333 145.858 21.944 145.858 22.448V34.292C145.858 34.7773 145.699 35.188 145.382 35.524C145.064 35.8413 144.663 36 144.178 36C143.692 36 143.291 35.8413 142.974 35.524C142.656 35.188 142.498 34.7773 142.498 34.292V32.92L143.114 33.172C143.114 33.4147 142.983 33.7133 142.722 34.068C142.46 34.404 142.106 34.74 141.658 35.076C141.21 35.412 140.678 35.7013 140.062 35.944C139.464 36.168 138.811 36.28 138.102 36.28C136.814 36.28 135.647 35.9533 134.602 35.3C133.556 34.628 132.726 33.7133 132.11 32.556C131.512 31.38 131.214 30.036 131.214 28.524C131.214 26.9933 131.512 25.6493 132.11 24.492C132.726 23.316 133.547 22.4013 134.574 21.748C135.6 21.076 136.739 20.74 137.99 20.74C138.792 20.74 139.53 20.8613 140.202 21.104C140.874 21.3467 141.452 21.6547 141.938 22.028C142.442 22.4013 142.824 22.784 143.086 23.176C143.366 23.5493 143.506 23.8667 143.506 24.128L142.498 24.492V22.448C142.498 21.9627 142.656 21.5613 142.974 21.244C143.291 20.908 143.692 20.74 144.178 20.74ZM138.522 33.2C139.343 33.2 140.062 32.9947 140.678 32.584C141.294 32.1733 141.77 31.6133 142.106 30.904C142.46 30.1947 142.638 29.4013 142.638 28.524C142.638 27.628 142.46 26.8253 142.106 26.116C141.77 25.4067 141.294 24.8467 140.678 24.436C140.062 24.0253 139.343 23.82 138.522 23.82C137.719 23.82 137.01 24.0253 136.394 24.436C135.778 24.8467 135.292 25.4067 134.938 26.116C134.602 26.8253 134.434 27.628 134.434 28.524C134.434 29.4013 134.602 30.1947 134.938 30.904C135.292 31.6133 135.778 32.1733 136.394 32.584C137.01 32.9947 137.719 33.2 138.522 33.2ZM157.504 20.74C158.885 20.74 159.93 21.0293 160.64 21.608C161.368 22.1867 161.862 22.9613 162.124 23.932C162.404 24.884 162.544 25.948 162.544 27.124V34.292C162.544 34.7773 162.385 35.188 162.068 35.524C161.75 35.8413 161.349 36 160.864 36C160.378 36 159.977 35.8413 159.66 35.524C159.342 35.188 159.184 34.7773 159.184 34.292V27.124C159.184 26.508 159.1 25.9573 158.932 25.472C158.782 24.968 158.502 24.5667 158.092 24.268C157.681 23.9693 157.093 23.82 156.328 23.82C155.581 23.82 154.946 23.9693 154.424 24.268C153.92 24.5667 153.528 24.968 153.248 25.472C152.986 25.9573 152.856 26.508 152.856 27.124V34.292C152.856 34.7773 152.697 35.188 152.38 35.524C152.062 35.8413 151.661 36 151.176 36C150.69 36 150.289 35.8413 149.972 35.524C149.654 35.188 149.496 34.7773 149.496 34.292V22.728C149.496 22.2427 149.654 21.8413 149.972 21.524C150.289 21.188 150.69 21.02 151.176 21.02C151.661 21.02 152.062 21.188 152.38 21.524C152.697 21.8413 152.856 22.2427 152.856 22.728V23.932L152.436 23.848C152.604 23.5307 152.846 23.1947 153.164 22.84C153.481 22.4667 153.854 22.1213 154.284 21.804C154.713 21.4867 155.198 21.2347 155.74 21.048C156.281 20.8427 156.869 20.74 157.504 20.74Z" fill="#3B82F6"/>
</svg>
