<svg width="170" height="50" viewBox="0 0 170 50" fill="none" xmlns="http://www.w3.org/2000/svg">
<rect width="50" height="50" rx="12" fill="#3B82F6"/>
<path d="M22.968 16.4C23.416 16.4 23.78 16.5493 24.06 16.848C24.34 17.1467 24.48 17.52 24.48 17.968V34.292C24.48 34.7773 24.312 35.188 23.976 35.524C23.6587 35.8413 23.2573 36 22.772 36C22.5293 36 22.2773 35.9627 22.016 35.888C21.7733 35.7947 21.5867 35.6733 21.456 35.524L10.452 21.552L11.18 21.104V34.432C11.18 34.88 11.0307 35.2533 10.732 35.552C10.452 35.8507 10.0787 36 9.612 36C9.164 36 8.8 35.8507 8.52 35.552C8.24 35.2533 8.1 34.88 8.1 34.432V18.108C8.1 17.6227 8.25867 17.2213 8.576 16.904C8.912 16.568 9.32267 16.4 9.808 16.4C10.0693 16.4 10.34 16.456 10.62 16.568C10.9 16.6613 11.1053 16.8107 11.236 17.016L21.904 30.624L21.428 30.96V17.968C21.428 17.52 21.568 17.1467 21.848 16.848C22.128 16.5493 22.5013 16.4 22.968 16.4ZM37.4538 16.4C39.2458 16.4 40.5805 16.82 41.4578 17.66C42.3352 18.5 42.7738 19.7413 42.7738 21.384C42.7738 22.2613 42.5592 23.036 42.1298 23.708C41.7005 24.3613 41.0658 24.8747 40.2258 25.248C39.3858 25.6027 38.3498 25.78 37.1178 25.78L37.2298 24.52C37.8085 24.52 38.4712 24.604 39.2178 24.772C39.9645 24.9213 40.6832 25.2013 41.3738 25.612C42.0832 26.004 42.6618 26.564 43.1098 27.292C43.5765 28.0013 43.8098 28.916 43.8098 30.036C43.8098 31.268 43.6045 32.276 43.1938 33.06C42.8018 33.844 42.2792 34.4507 41.6258 34.88C40.9725 35.3093 40.2725 35.608 39.5258 35.776C38.7792 35.9253 38.0605 36 37.3698 36H30.3978C29.9125 36 29.5018 35.8413 29.1658 35.524C28.8485 35.188 28.6898 34.7773 28.6898 34.292V18.108C28.6898 17.6227 28.8485 17.2213 29.1658 16.904C29.5018 16.568 29.9125 16.4 30.3978 16.4H37.4538ZM36.9498 19.704H31.9658L32.3298 19.256V24.324L31.9938 24.072H37.0338C37.5752 24.072 38.0605 23.8947 38.4898 23.54C38.9192 23.1853 39.1338 22.672 39.1338 22C39.1338 21.1973 38.9285 20.6187 38.5178 20.264C38.1258 19.8907 37.6032 19.704 36.9498 19.704ZM37.1738 27.376H32.0778L32.3298 27.152V33.06L32.0498 32.78H37.3698C38.2285 32.78 38.9098 32.556 39.4138 32.108C39.9178 31.6413 40.1698 30.9507 40.1698 30.036C40.1698 29.196 40.0018 28.5893 39.6658 28.216C39.3298 27.8427 38.9285 27.6093 38.4618 27.516C37.9952 27.4227 37.5658 27.376 37.1738 27.376Z" fill="white"/>
<path d="M84.032 16.624C84.1813 16.624 84.2653 16.7173 84.284 16.904C84.3213 17.072 84.34 17.24 84.34 17.408L84.312 17.604C84.2933 17.716 84.2653 17.8653 84.228 18.052C84.1907 18.22 84.144 18.4067 84.088 18.612C84.0507 18.8173 83.9947 19.004 83.92 19.172C83.6587 19.9933 83.444 20.8053 83.276 21.608C83.1267 22.4107 83.0053 23.2227 82.912 24.044C82.8187 24.8467 82.744 25.6587 82.688 26.48C82.632 27.3013 82.576 28.132 82.52 28.972C82.5947 28.2067 82.66 27.404 82.716 26.564C82.7907 25.724 82.884 24.884 82.996 24.044C83.108 23.1853 83.248 22.3547 83.416 21.552C83.6027 20.7307 83.8547 19.9653 84.172 19.256C83.892 21.048 83.6587 22.8307 83.472 24.604C83.304 26.3773 83.164 28.1693 83.052 29.98L82.716 30.148C82.716 31.2867 82.604 32.3787 82.38 33.424C82.156 34.4507 81.904 35.5147 81.624 36.616C81.5307 36.616 81.4187 36.616 81.288 36.616C81.176 36.6347 81.064 36.644 80.952 36.644C80.8587 36.644 80.728 36.616 80.56 36.56C80.392 36.504 80.2147 36.4293 80.028 36.336C79.8413 36.2613 79.6453 36.168 79.44 36.056C79.2533 35.9627 79.0947 35.8693 78.964 35.776C78.1613 35.2533 77.4427 34.6093 76.808 33.844C76.1733 33.06 75.604 32.2013 75.1 31.268C74.596 30.3347 74.148 29.3547 73.756 28.328C73.364 27.2827 72.9907 26.2373 72.636 25.192C72.3 24.1467 71.9733 23.1293 71.656 22.14C71.3387 21.132 71.0213 20.208 70.704 19.368L70.536 19.508C70.8533 20.4413 71.1613 21.4587 71.46 22.56C71.7773 23.6427 72.104 24.7533 72.44 25.892C72.7947 27.012 73.1867 28.1227 73.616 29.224C74.064 30.3253 74.5773 31.352 75.156 32.304C75.7533 33.256 76.444 34.1053 77.228 34.852C78.012 35.58 78.9267 36.1493 79.972 36.56C79.076 36.3173 78.2733 35.9067 77.564 35.328C76.8733 34.7307 76.2387 34.0307 75.66 33.228C75.1 32.4253 74.596 31.5573 74.148 30.624C73.7187 29.672 73.3267 28.7107 72.972 27.74C72.6173 26.7693 72.3 25.8173 72.02 24.884C71.74 23.9507 71.4787 23.1013 71.236 22.336C71.236 23.12 71.2733 23.8853 71.348 24.632C71.4413 25.3787 71.488 26.1347 71.488 26.9C71.488 28.188 71.5253 29.4853 71.6 30.792C71.6747 32.08 71.7493 33.368 71.824 34.656L71.208 34.768C71.0587 34.768 70.9467 34.6467 70.872 34.404C70.7973 34.1427 70.7413 33.8533 70.704 33.536C70.6667 33.2187 70.6387 32.92 70.62 32.64C70.62 32.3413 70.62 32.1547 70.62 32.08H70.284C70.284 32.2293 70.2747 32.528 70.256 32.976C70.256 33.4053 70.228 33.8533 70.172 34.32C70.116 34.7867 70.0227 35.2067 69.892 35.58C69.78 35.9533 69.612 36.14 69.388 36.14C69.2387 36.14 69.0987 35.8973 68.968 35.412C68.8373 34.908 68.7067 34.2547 68.576 33.452C68.4453 32.6307 68.324 31.7067 68.212 30.68C68.1 29.6347 68.0067 28.58 67.932 27.516C67.8573 26.452 67.792 25.416 67.736 24.408C67.6987 23.4 67.68 22.5133 67.68 21.748C67.68 20.7587 67.7453 19.7787 67.876 18.808C68.0253 17.8373 68.2587 16.876 68.576 15.924L71.656 15.336C71.7493 15.4667 71.8333 15.588 71.908 15.7C71.9827 15.7933 72.0667 15.896 72.16 16.008C72.7013 16.792 73.168 17.6507 73.56 18.584C73.952 19.4987 74.3067 20.46 74.624 21.468C74.9413 22.4573 75.24 23.4653 75.52 24.492C75.8187 25.5 76.1453 26.4893 76.5 27.46C76.8547 28.412 77.2653 29.3173 77.732 30.176C78.1987 31.0347 78.768 31.8 79.44 32.472C79.5147 31.9307 79.58 31.212 79.636 30.316C79.7107 29.42 79.7853 28.4587 79.86 27.432C79.9533 26.4053 80.0467 25.3787 80.14 24.352C80.2333 23.3067 80.3453 22.364 80.476 21.524C80.6253 20.6653 80.7933 19.9747 80.98 19.452C81.1853 18.9107 81.4187 18.64 81.68 18.64L81.848 18.752C81.456 19.9093 81.1853 21.076 81.036 22.252C80.9053 23.428 80.8027 24.6133 80.728 25.808C80.672 27.0027 80.5973 28.1973 80.504 29.392C80.4293 30.568 80.252 31.7347 79.972 32.892L80.14 32.976C80.1587 32.808 80.1773 32.64 80.196 32.472C80.2147 32.2853 80.2427 32.108 80.28 31.94C80.4293 30.8573 80.532 29.7747 80.588 28.692C80.6627 27.5907 80.7373 26.4893 80.812 25.388C80.9053 24.2867 81.0267 23.1947 81.176 22.112C81.344 21.0293 81.596 19.9653 81.932 18.92L82.212 19.116C82.324 19.0413 82.4267 18.8733 82.52 18.612C82.6133 18.332 82.7253 18.052 82.856 17.772C82.9867 17.4733 83.1453 17.212 83.332 16.988C83.5187 16.7453 83.752 16.624 84.032 16.624ZM81.176 36.392C81.3813 35.72 81.568 35.048 81.736 34.376C81.904 33.704 82.0347 33.0133 82.128 32.304C82.016 32.976 81.8667 33.6387 81.68 34.292C81.512 34.9267 81.344 35.5707 81.176 36.224C80.056 35.832 79.1413 35.4027 78.432 34.936C77.7413 34.4693 77.1533 33.9373 76.668 33.34C76.2013 32.7427 75.7813 32.0707 75.408 31.324C75.1093 30.7453 74.7827 30.1013 74.428 29.392C74.652 29.8587 74.848 30.288 75.016 30.68C75.2773 31.2213 75.5293 31.7253 75.772 32.192C76.0333 32.64 76.304 33.0507 76.584 33.424C76.864 33.7787 77.2093 34.124 77.62 34.46C78.0307 34.7773 78.516 35.0947 79.076 35.412C79.6547 35.7107 80.3547 36.0373 81.176 36.392ZM79.888 33.592C79.7013 33.4613 79.4587 33.2093 79.16 32.836C78.88 32.4627 78.5907 32.08 78.292 31.688C78.012 31.2773 77.76 30.9133 77.536 30.596C77.312 30.2787 77.1813 30.1107 77.144 30.092C77.4427 30.7827 77.8253 31.4173 78.292 31.996C78.7773 32.556 79.2813 33.088 79.804 33.592H79.888ZM90.2436 33.396V32.528L90.6076 32.304C90.5516 31.9867 90.5143 31.6787 90.4956 31.38C90.477 31.0627 90.4676 30.7453 90.4676 30.428C90.4676 30.0733 90.4676 29.728 90.4676 29.392C90.4863 29.0373 90.4956 28.6733 90.4956 28.3C90.4956 27.908 90.477 27.516 90.4396 27.124C90.4023 26.732 90.337 26.34 90.2436 25.948H90.0756C90.0943 26.9373 90.1223 27.908 90.1596 28.86C90.2156 29.812 90.2436 30.7827 90.2436 31.772C90.1503 30.3533 90.0383 28.9347 89.9076 27.516C89.7956 26.0973 89.7396 24.66 89.7396 23.204C89.7396 22.7747 89.7583 22.3453 89.7956 21.916C89.8516 21.468 89.9076 21.0293 89.9636 20.6L88.1156 21.076L88.1436 20.992C88.1063 20.936 88.0503 20.8333 87.9756 20.684C87.9196 20.5347 87.8916 20.4413 87.8916 20.404C87.8916 20.3107 87.985 20.2173 88.1716 20.124C88.377 20.012 88.601 19.9187 88.8436 19.844C89.105 19.7693 89.3476 19.704 89.5716 19.648C89.8143 19.592 89.9823 19.5547 90.0756 19.536L89.9916 19.2C89.8423 19.2373 89.5343 19.284 89.0676 19.34C88.6196 19.3773 88.1623 19.396 87.6956 19.396C87.3223 19.396 86.9956 19.368 86.7156 19.312C86.4356 19.256 86.2956 19.1347 86.2956 18.948C86.2956 18.7427 86.4823 18.5373 86.8556 18.332C87.229 18.1267 87.705 17.94 88.2836 17.772C88.881 17.5853 89.5343 17.4173 90.2436 17.268C90.953 17.1187 91.6343 16.988 92.2876 16.876C92.941 16.764 93.529 16.68 94.0516 16.624C94.5743 16.568 94.9383 16.54 95.1436 16.54C96.0956 16.54 97.001 16.6613 97.8596 16.904C98.737 17.128 99.5023 17.492 100.156 17.996C100.809 18.4813 101.322 19.1067 101.696 19.872C102.088 20.6373 102.284 21.5427 102.284 22.588C102.284 23.0173 102.218 23.4653 102.088 23.932C101.957 24.38 101.752 24.8187 101.472 25.248C101.21 25.6587 100.865 26.032 100.436 26.368C100.025 26.704 99.5303 26.9467 98.9516 27.096C99.9223 27.2267 100.753 27.4507 101.444 27.768C102.153 28.0853 102.722 28.468 103.152 28.916C103.6 29.364 103.926 29.868 104.132 30.428C104.337 30.988 104.44 31.5853 104.44 32.22C104.44 33.0413 104.272 33.7413 103.936 34.32C103.618 34.8987 103.189 35.384 102.648 35.776C102.106 36.168 101.49 36.4667 100.8 36.672C100.109 36.896 99.3903 37.064 98.6436 37.176C97.897 37.288 97.1596 37.3533 96.4316 37.372C95.7036 37.4093 95.041 37.428 94.4436 37.428C94.2943 37.428 94.005 37.4187 93.5756 37.4C93.165 37.3813 92.7356 37.344 92.2876 37.288C91.8396 37.232 91.4383 37.148 91.0836 37.036C90.7476 36.9427 90.5796 36.812 90.5796 36.644L90.6076 36.504C91.3916 36.6347 92.1756 36.7373 92.9596 36.812C93.7436 36.9053 94.5276 36.952 95.3116 36.952C95.909 36.952 96.497 36.9147 97.0756 36.84C97.6543 36.7653 98.233 36.672 98.8116 36.56C97.7663 36.7467 96.6743 36.84 95.5356 36.84C94.733 36.84 93.9303 36.8027 93.1276 36.728C92.3436 36.6533 91.5596 36.5507 90.7756 36.42L90.9156 36.084L90.8596 35.888C90.8036 35.9067 90.7196 35.916 90.6076 35.916C90.421 35.916 90.2063 35.8787 89.9636 35.804C89.721 35.7293 89.4876 35.636 89.2636 35.524C89.0583 35.412 88.881 35.2813 88.7316 35.132C88.5823 34.9827 88.5076 34.8333 88.5076 34.684C88.5076 34.5907 88.5823 34.516 88.7316 34.46C88.881 34.404 89.049 34.3667 89.2356 34.348C89.441 34.3107 89.637 34.2827 89.8236 34.264C90.0103 34.2453 90.141 34.2267 90.2156 34.208L90.2436 33.396ZM93.0436 20.124C93.081 20.236 93.1183 20.4787 93.1556 20.852C93.2116 21.2067 93.2583 21.6267 93.2956 22.112C93.3516 22.5973 93.3983 23.12 93.4356 23.68C93.473 24.24 93.501 24.7813 93.5196 25.304C93.557 25.808 93.585 26.2653 93.6036 26.676C93.6223 27.068 93.6316 27.348 93.6316 27.516C93.6316 28.5053 93.5943 29.4947 93.5196 30.484C93.445 31.4547 93.4076 32.4347 93.4076 33.424C93.4076 33.7973 93.529 34.0307 93.7716 34.124C94.033 34.2173 94.313 34.264 94.6116 34.264C95.5076 34.264 96.3943 34.236 97.2716 34.18C98.149 34.1053 99.0076 33.9093 99.8476 33.592L99.9316 33.928C100.305 33.7413 100.632 33.5173 100.912 33.256C101.21 32.976 101.36 32.612 101.36 32.164C101.36 31.66 101.201 31.2307 100.884 30.876C100.566 30.5027 100.174 30.204 99.7076 29.98C99.2596 29.756 98.7743 29.588 98.2516 29.476C97.7476 29.364 97.2996 29.308 96.9076 29.308C96.8703 29.308 96.7956 29.336 96.6836 29.392C96.5716 29.4293 96.4876 29.4573 96.4316 29.476C96.693 29.4947 97.0196 29.5413 97.4116 29.616C97.8036 29.6907 98.205 29.7933 98.6156 29.924C99.0263 30.036 99.4183 30.1853 99.7916 30.372C100.165 30.5587 100.473 30.764 100.716 30.988C100.361 30.708 99.8756 30.4747 99.2596 30.288C98.625 30.1013 97.9716 29.952 97.2996 29.84C96.6463 29.728 96.0396 29.644 95.4796 29.588C94.9196 29.5133 94.537 29.4573 94.3316 29.42L94.1916 26.312H94.2476C94.733 26.312 95.237 26.228 95.7596 26.06C96.301 25.8733 96.7956 25.6213 97.2436 25.304C97.6916 24.968 98.065 24.576 98.3636 24.128C98.6623 23.6613 98.8116 23.1573 98.8116 22.616C98.8116 22.0933 98.6996 21.664 98.4756 21.328C98.2516 20.992 97.953 20.7307 97.5796 20.544C97.225 20.3387 96.8236 20.208 96.3756 20.152C95.9276 20.0773 95.489 20.04 95.0596 20.04C94.7236 20.04 94.3876 20.0587 94.0516 20.096C93.7156 20.1147 93.3796 20.124 93.0436 20.124ZM93.4356 34.852C93.753 34.8893 94.0516 34.9173 94.3316 34.936C94.6303 34.9547 94.9383 34.964 95.2556 34.964C95.5543 34.964 95.9183 34.9547 96.3476 34.936C96.7956 34.8987 97.2623 34.8427 97.7476 34.768C98.2516 34.6933 98.7463 34.5907 99.2316 34.46C99.7356 34.3293 100.184 34.1613 100.576 33.956C100.968 33.7507 101.285 33.4987 101.528 33.2C101.789 32.9013 101.92 32.5467 101.92 32.136C101.92 31.912 101.882 31.6973 101.808 31.492C101.733 31.2867 101.63 31.0907 101.5 30.904C101.593 31.0533 101.668 31.2213 101.724 31.408C101.798 31.576 101.836 31.7533 101.836 31.94C101.836 32.5747 101.621 33.0787 101.192 33.452C100.762 33.8253 100.24 34.1147 99.6236 34.32C99.0263 34.5067 98.401 34.628 97.7476 34.684C97.0943 34.74 96.5343 34.768 96.0676 34.768C95.6383 34.768 95.1996 34.7587 94.7516 34.74C94.3223 34.7027 93.893 34.6653 93.4636 34.628L93.4356 34.852ZM90.9156 34.404C90.953 33.7507 90.9716 33.088 90.9716 32.416V30.428C90.9716 30.0547 90.9623 29.6907 90.9436 29.336C90.925 29 90.897 28.664 90.8596 28.328C90.8596 28.8133 90.8596 29.2987 90.8596 29.784C90.8783 30.288 90.8876 30.792 90.8876 31.296C90.8876 31.8187 90.8783 32.332 90.8596 32.836C90.841 33.34 90.7943 33.844 90.7196 34.348L90.9156 34.404ZM96.2076 26.396C96.5436 26.1907 96.861 25.976 97.1596 25.752C97.477 25.528 97.7663 25.2667 98.0276 24.968C97.9343 24.968 97.8876 24.9307 97.8876 24.856C97.309 25.4907 96.5903 25.9853 95.7316 26.34L96.2076 26.396ZM97.6636 29C98.2236 29.0933 98.821 29.2707 99.4556 29.532C99.997 29.756 100.482 30.0173 100.912 30.316C100.501 29.98 100.016 29.6907 99.4556 29.448C98.8396 29.1493 98.2516 29 97.6916 29H97.6636ZM91.2796 20.74L91.4756 20.292L91.0276 20.348C91.0276 20.3853 91.0276 20.4227 91.0276 20.46C91.0463 20.4787 91.0556 20.5067 91.0556 20.544C91.0556 20.5813 91.0463 20.6187 91.0276 20.656C91.0276 20.6747 91.0276 20.7027 91.0276 20.74H91.2796ZM103.572 33.536C103.758 33.0507 103.852 32.5933 103.852 32.164V31.856C103.852 31.744 103.842 31.6413 103.824 31.548C103.824 32.1453 103.758 32.7053 103.628 33.228C103.516 33.732 103.264 34.208 102.872 34.656C103.17 34.3573 103.404 33.984 103.572 33.536ZM93.0716 28.944C92.997 29.2987 92.9503 29.6533 92.9316 30.008C92.913 30.3067 92.9036 30.6147 92.9036 30.932C92.9223 30.6333 92.9503 30.3347 92.9876 30.036C93.025 29.6813 93.053 29.3173 93.0716 28.944ZM102.816 34.712C102.461 35.0853 102.069 35.384 101.64 35.608C101.21 35.832 100.762 36.0373 100.296 36.224C100.781 36.056 101.238 35.86 101.668 35.636C102.097 35.412 102.48 35.104 102.816 34.712ZM101.948 28.44C102.116 28.5893 102.274 28.7387 102.424 28.888L102.816 29.28C102.704 29.112 102.582 28.9627 102.452 28.832C102.321 28.6827 102.153 28.552 101.948 28.44ZM92.9036 34.096V33.256C92.885 33.4053 92.8663 33.5453 92.8476 33.676C92.8476 33.8067 92.8476 33.9467 92.8476 34.096H92.9036ZM100.772 31.044C101.07 31.2867 101.22 31.576 101.22 31.912V31.968C101.164 31.632 101.014 31.324 100.772 31.044ZM100.688 33.116C100.52 33.284 100.314 33.4147 100.072 33.508L100.688 33.116ZM92.7916 34.768H92.9036V34.572H92.7916V34.768ZM101.024 32.64C101.005 32.64 100.996 32.6213 100.996 32.584C100.996 32.5467 101.005 32.5 101.024 32.444C101.061 32.3693 101.098 32.3133 101.136 32.276L101.024 32.64ZM101.22 32.136C101.22 32.1547 101.201 32.1827 101.164 32.22L101.22 32.108V32.136ZM112.629 19.144C112.648 19.2373 112.75 19.284 112.937 19.284H112.993C113.105 19.284 113.18 19.2933 113.217 19.312C114.188 19.6107 115.149 20.0493 116.101 20.628C117.072 21.188 117.94 21.8693 118.705 22.672C119.489 23.456 120.114 24.352 120.581 25.36C121.066 26.368 121.309 27.4507 121.309 28.608C121.309 29.616 121.113 30.5867 120.721 31.52C120.329 32.4533 119.788 33.2653 119.097 33.956C119.806 33.34 120.366 32.5747 120.777 31.66C121.206 30.7267 121.421 29.728 121.421 28.664C121.421 27.4693 121.169 26.3587 120.665 25.332C120.161 24.2867 119.517 23.3533 118.733 22.532C117.949 21.7107 117.072 21.0107 116.101 20.432C115.149 19.8347 114.216 19.3773 113.301 19.06C114.01 19.06 114.729 19.2187 115.457 19.536C116.204 19.8533 116.913 20.2733 117.585 20.796C118.257 21.3 118.873 21.888 119.433 22.56C120.012 23.2133 120.497 23.8853 120.889 24.576L120.693 24.856C121.066 25.416 121.346 26.0227 121.533 26.676C121.738 27.3293 121.841 28.0013 121.841 28.692C121.841 30.0173 121.552 31.184 120.973 32.192C120.413 33.1813 119.694 34.012 118.817 34.684C117.958 35.3373 117.006 35.832 115.961 36.168C114.934 36.504 113.964 36.672 113.049 36.672C112.526 36.672 111.994 36.616 111.453 36.504C110.93 36.392 110.398 36.2053 109.857 35.944V36.112C110.38 36.4107 110.912 36.616 111.453 36.728C112.013 36.84 112.564 36.896 113.105 36.896C114.449 36.896 115.765 36.5973 117.053 36C118.36 35.4213 119.461 34.6 120.357 33.536C119.498 34.6373 118.425 35.496 117.137 36.112C115.868 36.728 114.542 37.036 113.161 37.036C111.742 37.036 110.594 36.756 109.717 36.196C108.84 35.6547 108.149 34.9827 107.645 34.18C107.16 33.3773 106.833 32.528 106.665 31.632C106.497 30.736 106.413 29.9333 106.413 29.224C106.413 28.272 106.534 27.3387 106.777 26.424C107.038 25.5093 107.43 24.6693 107.953 23.904C108.476 23.1387 109.148 22.4853 109.969 21.944C110.79 21.384 111.78 20.992 112.937 20.768L112.125 20.572C111.733 20.4787 111.453 20.3667 111.285 20.236C111.117 20.1053 111.033 19.9933 111.033 19.9C111.033 19.7507 111.192 19.592 111.509 19.424C111.845 19.2373 112.218 19.144 112.629 19.144ZM111.369 22.672C111.873 22.4853 112.358 22.392 112.825 22.392C113.292 22.392 113.646 22.4667 113.889 22.616C114.15 22.7467 114.281 22.8867 114.281 23.036C114.281 23.1293 114.169 23.232 113.945 23.344C113.74 23.456 113.469 23.6147 113.133 23.82C112.816 24.0067 112.461 24.2493 112.069 24.548C111.696 24.8467 111.341 25.2293 111.005 25.696C110.688 26.144 110.417 26.6947 110.193 27.348C109.988 28.0013 109.885 28.7667 109.885 29.644C109.885 30.932 110.174 31.9027 110.753 32.556C111.332 33.2093 112.134 33.536 113.161 33.536C113.814 33.536 114.477 33.424 115.149 33.2C115.84 32.976 116.456 32.6587 116.997 32.248C117.557 31.8373 118.005 31.3333 118.341 30.736C118.696 30.1387 118.873 29.4667 118.873 28.72C118.873 28.16 118.77 27.6 118.565 27.04C118.378 26.48 118.108 25.948 117.753 25.444C117.417 24.9213 117.006 24.436 116.521 23.988C116.054 23.54 115.541 23.1573 114.981 22.84C114.44 22.5413 113.992 22.3173 113.637 22.168C113.301 22 113.058 21.8413 112.909 21.692C112.76 21.7667 112.545 21.86 112.265 21.972C112.004 22.0653 111.649 22.2147 111.201 22.42L111.369 22.672ZM113.245 21.356C114.104 21.636 114.925 22.056 115.709 22.616C116.381 23.12 116.997 23.6707 117.557 24.268C117.016 23.6333 116.428 23.064 115.793 22.56C115.065 21.9627 114.253 21.496 113.357 21.16L113.245 21.356ZM118.677 30.904C118.397 31.5013 118.005 32.0333 117.501 32.5C117.837 32.276 118.117 32.0053 118.341 31.688C118.584 31.3707 118.78 31.0533 118.929 30.736C119.078 30.4187 119.19 30.1293 119.265 29.868C119.321 29.6253 119.368 29.4293 119.405 29.28C119.2 29.7653 118.957 30.3067 118.677 30.904ZM120.553 33.312C120.534 33.3493 120.506 33.3867 120.469 33.424C120.45 33.4427 120.432 33.452 120.413 33.452C120.394 33.452 120.441 33.3587 120.553 33.172C120.665 32.9667 120.796 32.7333 120.945 32.472C121.113 32.192 121.272 31.9027 121.421 31.604C121.552 31.38 121.645 31.184 121.701 31.016C121.44 31.8187 121.057 32.584 120.553 33.312ZM122.121 28.776C122.121 29.0747 122.102 29.3733 122.065 29.672C122.028 29.952 121.962 30.2133 121.869 30.456C122 29.9893 122.065 29.4667 122.065 28.888C122.065 28.4587 122.028 28.0387 121.953 27.628C121.897 27.2733 121.822 26.928 121.729 26.592C121.822 26.928 121.906 27.264 121.981 27.6C122.074 27.9733 122.121 28.3653 122.121 28.776ZM113.245 20.908L112.993 20.796C112.974 20.8333 112.946 20.8707 112.909 20.908C112.872 20.9453 112.853 20.9827 112.853 21.02C112.853 21.0573 112.872 21.1133 112.909 21.188C112.965 21.244 113.012 21.2907 113.049 21.328L113.245 20.908ZM117.725 24.464C117.669 24.3893 117.613 24.324 117.557 24.268C117.613 24.3427 117.669 24.408 117.725 24.464ZM121.701 31.016C121.72 30.9787 121.729 30.9413 121.729 30.904C121.729 30.9413 121.72 30.9787 121.701 31.016ZM121.757 30.848C121.738 30.8667 121.729 30.8853 121.729 30.904C121.729 30.8853 121.738 30.8667 121.757 30.848ZM121.942 38.828L121.914 39.5C121.896 39.6493 121.886 39.7893 121.886 39.92C121.886 41.1333 122.129 41.7773 122.614 41.852C122.446 41.796 122.306 41.6 122.194 41.264C122.082 40.928 122.026 40.4987 122.026 39.976C122.026 39.696 122.054 39.4253 122.11 39.164L122.754 41.292C122.736 41.292 122.764 41.2827 122.838 41.264C122.913 41.2453 122.978 41.208 123.034 41.152L123.286 41.432C124.462 40.7413 125.33 39.7987 125.89 38.604C126.45 37.4093 126.73 35.916 126.73 34.124C126.73 33.396 126.702 32.64 126.646 31.856L126.562 31.912C126.562 32.9573 126.525 33.9467 126.45 34.88C126.394 35.8133 126.254 36.672 126.03 37.456C125.825 38.24 125.517 38.9307 125.106 39.528C124.714 40.1067 124.201 40.5827 123.566 40.956C124.201 40.5453 124.714 40.0507 125.106 39.472C125.498 38.8747 125.797 38.2213 126.002 37.512C126.208 36.8213 126.338 36.0933 126.394 35.328C126.45 34.5627 126.478 33.8067 126.478 33.06C126.478 32.668 126.469 32.2853 126.45 31.912C126.45 31.52 126.45 31.1373 126.45 30.764C126.45 30.1667 126.46 29.588 126.478 29.028C126.516 28.4493 126.534 27.8427 126.534 27.208C126.534 26.592 126.525 25.976 126.506 25.36C126.506 24.744 126.506 24.1373 126.506 23.54C126.581 23.3533 126.656 23.0827 126.73 22.728C126.824 22.3547 126.917 21.9907 127.01 21.636C127.122 21.2627 127.225 20.9453 127.318 20.684C127.412 20.404 127.496 20.264 127.57 20.264C127.72 20.264 127.869 20.292 128.018 20.348C128.168 20.404 128.242 20.5533 128.242 20.796C128.242 20.908 128.233 21.0107 128.214 21.104C128.214 21.1973 128.214 21.3187 128.214 21.468H128.466C128.672 20.8707 128.886 20.4507 129.11 20.208C129.334 19.9467 129.549 19.816 129.754 19.816C130.053 19.816 130.202 20.1987 130.202 20.964V21.188C130.202 22.6627 130.146 24.268 130.034 26.004C129.941 27.74 129.894 29.448 129.894 31.128C129.894 31.408 129.894 31.6973 129.894 31.996C129.913 32.2947 129.922 32.5933 129.922 32.892C129.922 33.6947 129.866 34.6187 129.754 35.664C129.661 36.7093 129.437 37.7453 129.082 38.772C128.746 39.8173 128.252 40.788 127.598 41.684C126.945 42.58 126.068 43.28 124.966 43.784C124.649 43.9333 124.313 44.0733 123.958 44.204C123.622 44.3347 123.24 44.4 122.81 44.4C122.045 44.4 121.438 44.204 120.99 43.812C120.524 43.42 120.169 42.972 119.926 42.468C119.665 41.9827 119.497 41.4973 119.422 41.012C119.348 40.5453 119.31 40.228 119.31 40.06C119.31 39.7427 119.366 39.5373 119.478 39.444C119.572 39.3507 119.646 39.304 119.702 39.304L119.842 39.332C119.842 39.6307 119.861 39.9573 119.898 40.312C119.917 40.6853 119.973 41.0493 120.066 41.404C120.141 41.7773 120.262 42.1227 120.43 42.44C120.598 42.7573 120.813 43.0187 121.074 43.224C120.832 43.0187 120.636 42.7573 120.486 42.44C120.337 42.1227 120.225 41.7773 120.15 41.404C120.057 41.0493 120.001 40.6947 119.982 40.34C119.945 39.9853 119.926 39.6773 119.926 39.416H120.43V38.576C120.542 38.3147 120.654 38.1373 120.766 38.044C120.878 37.9507 120.99 37.904 121.102 37.904C121.308 37.904 121.466 37.988 121.578 38.156C121.69 38.3427 121.812 38.5667 121.942 38.828ZM131.574 13.544C131.22 13.544 130.874 13.6373 130.538 13.824C130.202 13.992 129.96 14.1507 129.81 14.3C130.034 14.188 130.277 14.0667 130.538 13.936C130.8 13.7867 131.145 13.712 131.574 13.712C131.574 13.9733 131.406 14.1693 131.07 14.3L130.818 14.048C130.762 14.1787 130.669 14.272 130.538 14.328C130.426 14.384 130.314 14.44 130.202 14.496C130.09 14.5333 129.988 14.5893 129.894 14.664C129.801 14.72 129.745 14.8227 129.726 14.972L129.81 15.056C130.053 14.7387 130.445 14.4867 130.986 14.3L129.39 15.728L129.054 15.812C128.98 15.756 128.84 15.672 128.634 15.56C128.429 15.448 128.317 15.336 128.298 15.224H128.27C128.214 15.224 128.084 15.2053 127.878 15.168C127.692 15.112 127.486 15.0467 127.262 14.972C127.057 14.8787 126.87 14.7667 126.702 14.636C126.534 14.5053 126.45 14.3653 126.45 14.216C126.45 14.0667 126.516 13.8893 126.646 13.684C126.777 13.46 126.936 13.2453 127.122 13.04C127.309 12.816 127.496 12.62 127.682 12.452C127.869 12.284 128.018 12.172 128.13 12.116C128.466 12.06 128.802 11.9387 129.138 11.752C129.493 11.5467 129.773 11.444 129.978 11.444C130.016 11.4813 130.053 11.5373 130.09 11.612C130.146 11.6867 130.193 11.7427 130.23 11.78C130.137 11.8733 130.034 11.948 129.922 12.004C129.81 12.0413 129.689 12.1067 129.558 12.2L130.314 11.948C130.389 12.0973 130.501 12.2093 130.65 12.284C130.912 12.4333 131.098 12.6573 131.21 12.956C131.341 13.236 131.462 13.432 131.574 13.544ZM124.714 41.012C125.05 40.7693 125.349 40.4613 125.61 40.088C125.872 39.7147 126.096 39.3133 126.282 38.884C126.469 38.4547 126.618 38.0067 126.73 37.54C126.861 37.0733 126.945 36.6067 126.982 36.14C126.777 37.484 126.376 38.632 125.778 39.584C125.2 40.5547 124.35 41.2827 123.23 41.768C123.492 41.7307 123.744 41.6373 123.986 41.488C124.229 41.3387 124.472 41.18 124.714 41.012ZM128.634 38.548C128.205 39.4813 127.654 40.3773 126.982 41.236C126.329 42.1133 125.517 42.7947 124.546 43.28C125.554 42.8133 126.394 42.1507 127.066 41.292C127.738 40.452 128.261 39.5373 128.634 38.548ZM129.138 12.396C129.288 12.3587 129.428 12.2933 129.558 12.2C129.428 12.2373 129.278 12.284 129.11 12.34C128.961 12.3773 128.812 12.4147 128.662 12.452C128.849 12.452 129.008 12.4333 129.138 12.396ZM143.919 28.664C143.415 28.664 143.033 28.6547 142.771 28.636C142.529 28.6173 142.305 28.608 142.099 28.608C141.539 28.608 141.045 28.636 140.615 28.692C140.186 28.748 139.822 28.86 139.523 29.028C139.225 29.196 139.001 29.4387 138.851 29.756C138.702 30.0733 138.627 30.4933 138.627 31.016C138.627 31.7813 138.711 32.3507 138.879 32.724C139.066 33.0787 139.318 33.34 139.635 33.508C139.971 33.6573 140.373 33.7507 140.839 33.788C141.306 33.8253 141.829 33.9093 142.407 34.04C142.743 34.0773 143.079 34.1053 143.415 34.124C143.751 34.124 144.087 34.124 144.423 34.124H146.439C145.506 34.068 144.573 34.04 143.639 34.04C142.725 34.0213 141.894 33.9373 141.147 33.788C140.419 33.6387 139.822 33.3773 139.355 33.004C138.907 32.6307 138.683 32.0613 138.683 31.296C138.683 30.68 138.758 30.2133 138.907 29.896C139.075 29.56 139.29 29.3173 139.551 29.168C139.831 29 140.158 28.9067 140.531 28.888C140.905 28.8507 141.306 28.832 141.735 28.832C142.258 28.832 142.79 28.86 143.331 28.916C142.902 29.0467 142.463 29.1493 142.015 29.224C141.586 29.28 141.185 29.3453 140.811 29.42C140.438 29.476 140.111 29.56 139.831 29.672C139.57 29.7653 139.393 29.9053 139.299 30.092V31.352L139.075 31.464C139.15 31.9307 139.215 32.2853 139.271 32.528C139.346 32.752 139.533 32.9293 139.831 33.06C140.13 33.172 140.606 33.2653 141.259 33.34C141.931 33.4147 142.902 33.536 144.171 33.704H146.187C146.542 33.704 146.747 33.6947 146.803 33.676C146.878 33.6387 146.925 33.62 146.943 33.62L146.691 32.108C146.654 31.7347 146.607 31.3987 146.551 31.1C146.495 30.8013 146.421 30.484 146.327 30.148C146.309 30.204 146.253 30.232 146.159 30.232C146.253 30.5493 146.327 30.8853 146.383 31.24C146.458 31.5947 146.514 31.9307 146.551 32.248C146.607 32.5653 146.645 32.836 146.663 33.06C146.701 33.284 146.738 33.4147 146.775 33.452L146.607 33.508C146.57 33.5267 146.514 33.536 146.439 33.536H146.271C146.141 33.536 145.991 33.5267 145.823 33.508C145.655 33.4707 145.441 33.452 145.179 33.452H144.255C143.527 33.452 142.855 33.4147 142.239 33.34C141.661 33.2653 141.157 33.172 140.727 33.06C141.157 33.1533 141.679 33.228 142.295 33.284C142.949 33.3587 143.555 33.396 144.115 33.396C144.358 33.396 144.61 33.396 144.871 33.396C145.151 33.3773 145.45 33.368 145.767 33.368H146.691C146.635 33.312 146.57 33.284 146.495 33.284H146.439C146.365 31.996 146.197 30.764 145.935 29.588C145.674 28.412 145.254 27.3853 144.675 26.508C144.097 25.612 143.341 24.9027 142.407 24.38C141.474 23.8387 140.307 23.568 138.907 23.568C138.515 23.568 138.123 23.596 137.731 23.652C137.339 23.708 136.938 23.7827 136.527 23.876C136.565 23.8387 136.583 23.8013 136.583 23.764C136.583 23.6707 136.546 23.5867 136.471 23.512C136.397 23.4187 136.359 23.3253 136.359 23.232C136.359 23.12 136.471 23.0173 136.695 22.924C136.938 22.812 137.442 22.7093 138.207 22.616C138.17 22.5787 138.142 22.5227 138.123 22.448C138.123 22.3733 138.123 22.3173 138.123 22.28C137.115 22.28 136.331 22.2613 135.771 22.224C135.211 22.168 134.931 22.028 134.931 21.804C134.931 21.7107 135.043 21.58 135.267 21.412C135.51 21.244 135.846 21.0853 136.275 20.936C136.705 20.768 137.218 20.628 137.815 20.516C138.431 20.3853 139.113 20.32 139.859 20.32C141.297 20.32 142.529 20.544 143.555 20.992C144.582 21.4213 145.441 22 146.131 22.728C146.841 23.4373 147.41 24.2493 147.839 25.164C148.287 26.0787 148.642 27.0027 148.903 27.936C149.183 28.8507 149.389 29.7467 149.519 30.624C149.65 31.4827 149.771 32.2293 149.883 32.864C149.883 32.976 149.883 33.088 149.883 33.2C149.902 33.312 149.911 33.4427 149.911 33.592C149.911 34.1333 149.809 34.6093 149.603 35.02C149.417 35.412 149.146 35.7387 148.791 36C148.455 36.28 148.054 36.4853 147.587 36.616C147.139 36.7653 146.654 36.84 146.131 36.84C145.721 36.84 145.189 36.8307 144.535 36.812C143.882 36.7933 143.257 36.7373 142.659 36.644C142.267 36.5507 141.838 36.476 141.371 36.42C140.905 36.3827 140.429 36.308 139.943 36.196C139.458 36.084 138.982 35.9253 138.515 35.72C138.067 35.5147 137.657 35.2067 137.283 34.796C136.929 34.3667 136.639 33.816 136.415 33.144C136.21 32.472 136.107 31.6227 136.107 30.596C136.107 29.6253 136.331 28.8507 136.779 28.272C137.227 27.6747 137.759 27.2173 138.375 26.9C139.01 26.564 139.654 26.3493 140.307 26.256C140.961 26.144 141.493 26.088 141.903 26.088C142.426 26.088 142.771 26.1253 142.939 26.2C143.107 26.2747 143.191 26.3493 143.191 26.424C143.191 26.48 143.182 26.5267 143.163 26.564C142.697 26.564 142.099 26.5827 141.371 26.62C140.643 26.6573 139.934 26.7787 139.243 26.984C138.571 27.1893 137.993 27.5067 137.507 27.936C137.022 28.3467 136.779 28.9347 136.779 29.7C136.947 29.0093 137.227 28.468 137.619 28.076C138.03 27.6653 138.497 27.3667 139.019 27.18C139.542 26.9747 140.074 26.8533 140.615 26.816C141.175 26.76 141.679 26.732 142.127 26.732H143.079C143.005 26.8067 142.967 26.8813 142.967 26.956C142.967 27.0307 143.005 27.096 143.079 27.152H144.171C144.47 27.208 144.685 27.3107 144.815 27.46C144.946 27.5907 145.011 27.712 145.011 27.824C145.011 27.992 144.927 28.1413 144.759 28.272C144.591 28.4027 144.311 28.5333 143.919 28.664ZM139.215 35.44C139.738 35.6453 140.27 35.804 140.811 35.916C141.371 36.028 141.922 36.1027 142.463 36.14C143.005 36.196 143.509 36.224 143.975 36.224C143.602 36.1867 143.229 36.1213 142.855 36.028C142.463 35.9347 142.118 35.8507 141.819 35.776C141.502 35.7013 141.185 35.6547 140.867 35.636C140.569 35.5987 140.251 35.552 139.915 35.496C139.598 35.44 139.271 35.356 138.935 35.244C138.599 35.1133 138.263 34.9267 137.927 34.684C138.282 35.0013 138.711 35.2533 139.215 35.44ZM139.495 32.5C139.477 32.4813 139.533 32.5373 139.663 32.668C139.775 32.78 139.925 32.864 140.111 32.92C140.018 32.8827 139.878 32.836 139.691 32.78C139.486 32.7053 139.383 32.5933 139.383 32.444L139.495 32.5ZM140.195 32.92C140.177 32.92 140.149 32.92 140.111 32.92C140.13 32.92 140.158 32.92 140.195 32.92ZM153.403 34.208C153.403 34.1147 153.431 34.0027 153.487 33.872C153.543 33.7413 153.571 33.6013 153.571 33.452C153.627 33.004 153.664 32.6867 153.683 32.5C153.701 32.2947 153.711 32.1173 153.711 31.968C153.711 31.184 153.683 30.344 153.627 29.448C153.589 28.5333 153.543 27.656 153.487 26.816C153.487 26.5547 153.477 26.2467 153.459 25.892C153.459 25.5373 153.44 25.2573 153.403 25.052C153.459 24.3987 153.505 23.7547 153.543 23.12C153.58 22.4853 153.599 21.8413 153.599 21.188V20.488C153.599 20.2453 153.589 20.0027 153.571 19.76C153.627 19.816 153.683 19.844 153.739 19.844C153.813 19.844 153.888 19.816 153.963 19.76C154.056 19.704 154.14 19.676 154.215 19.676C154.345 19.676 154.448 19.816 154.523 20.096C154.616 20.376 154.663 20.992 154.663 21.944H154.915C155.008 20.8987 155.148 20.068 155.335 19.452C155.54 18.836 155.745 18.528 155.951 18.528C156.044 18.528 156.193 18.7333 156.399 19.144C156.604 19.536 156.707 20.1613 156.707 21.02L157.015 20.516C157.22 20.2733 157.444 20.0213 157.687 19.76C157.948 19.4987 158.237 19.2653 158.555 19.06C158.872 18.8547 159.227 18.6867 159.619 18.556C160.011 18.4067 160.459 18.332 160.963 18.332C161.933 18.332 162.773 18.556 163.483 19.004C164.211 19.4333 164.817 20.0027 165.303 20.712C165.788 21.4027 166.18 22.196 166.479 23.092C166.796 23.9693 167.039 24.8653 167.207 25.78C167.375 26.676 167.487 27.544 167.543 28.384C167.599 29.224 167.627 29.9427 167.627 30.54C167.627 31.0813 167.589 31.408 167.515 31.52C167.459 31.6133 167.347 31.6693 167.179 31.688C167.141 30.2507 167.048 28.7853 166.899 27.292C166.749 25.7987 166.395 24.352 165.835 22.952C166.339 24.4267 166.656 25.8827 166.787 27.32C166.936 28.7387 167.011 30.1667 167.011 31.604C166.899 31.548 166.796 31.52 166.703 31.52C166.628 31.52 166.563 31.548 166.507 31.604C166.507 31.7533 166.516 31.912 166.535 32.08C166.553 32.2293 166.563 32.3787 166.563 32.528C166.581 32.6773 166.591 32.8173 166.591 32.948C166.479 33.3773 166.367 33.6853 166.255 33.872C166.143 34.0587 166.04 34.152 165.947 34.152C165.835 34.152 165.741 34.1053 165.667 34.012C165.592 33.9 165.517 33.7693 165.443 33.62C165.387 33.4707 165.321 33.312 165.247 33.144C165.191 32.9573 165.107 32.78 164.995 32.612C165.032 32.2947 165.06 32.0427 165.079 31.856C165.097 31.6507 165.107 31.4827 165.107 31.352C165.107 30.848 165.097 30.2413 165.079 29.532C165.06 28.8227 165.004 28.0853 164.911 27.32C164.836 26.536 164.705 25.7613 164.519 24.996C164.351 24.212 164.108 23.5213 163.791 22.924C163.492 22.308 163.109 21.8133 162.643 21.44C162.176 21.048 161.616 20.852 160.963 20.852C160.515 20.852 160.113 21.0013 159.759 21.3C159.423 21.5987 159.124 21.9813 158.863 22.448C158.62 22.9147 158.405 23.428 158.219 23.988C158.032 24.5293 157.883 25.052 157.771 25.556C157.939 25.0333 158.107 24.5013 158.275 23.96C158.461 23.4187 158.676 22.924 158.919 22.476C159.18 22.028 159.479 21.664 159.815 21.384C160.151 21.0853 160.543 20.936 160.991 20.936C161.569 20.936 162.064 21.0947 162.475 21.412C162.904 21.7293 163.259 22.14 163.539 22.644C163.837 23.148 164.071 23.7267 164.239 24.38C164.425 25.0147 164.565 25.668 164.659 26.34C164.752 26.9933 164.808 27.6373 164.827 28.272C164.864 28.888 164.883 29.42 164.883 29.868C164.883 30.2227 164.873 30.5773 164.855 30.932C164.855 31.2867 164.845 31.6507 164.827 32.024C164.659 31.3147 164.528 30.5773 164.435 29.812C164.36 29.028 164.276 28.2627 164.183 27.516C164.089 26.7507 163.968 26.0227 163.819 25.332C163.688 24.6227 163.492 23.9693 163.231 23.372L163.427 23.092C163.24 22.6627 163.025 22.336 162.783 22.112C162.559 21.8693 162.335 21.692 162.111 21.58C161.887 21.468 161.681 21.4027 161.495 21.384C161.308 21.3653 161.187 21.356 161.131 21.356C160.664 21.356 160.244 21.524 159.871 21.86C159.516 22.196 159.199 22.6533 158.919 23.232C158.657 23.792 158.424 24.4453 158.219 25.192C158.013 25.9387 157.836 26.7227 157.687 27.544C157.537 28.3653 157.407 29.196 157.295 30.036C157.183 30.8573 157.089 31.632 157.015 32.36H157.267C157.36 31.7253 157.453 31.0253 157.547 30.26C157.659 29.4947 157.771 28.72 157.883 27.936C158.013 27.1333 158.163 26.3587 158.331 25.612C158.499 24.8653 158.695 24.1933 158.919 23.596C159.161 22.9987 159.441 22.5133 159.759 22.14C160.057 21.7853 160.421 21.58 160.851 21.524C160.44 21.6173 160.095 21.8787 159.815 22.308C159.516 22.756 159.255 23.3067 159.031 23.96C158.807 24.6133 158.601 25.332 158.415 26.116C158.247 26.8813 158.088 27.6187 157.939 28.328L157.379 32.416C157.304 32.6773 157.248 32.9107 157.211 33.116L157.099 33.704C157.061 33.8907 157.024 34.096 156.987 34.32C156.949 34.5253 156.903 34.768 156.847 35.048L156.763 35.384H156.595L153.767 34.432C153.673 34.4133 153.599 34.3853 153.543 34.348C153.505 34.3107 153.459 34.264 153.403 34.208ZM158.275 19.844C157.901 20.1613 157.603 20.5067 157.379 20.88C157.173 21.2347 156.977 21.5987 156.791 21.972V22C157.052 21.4587 157.416 20.908 157.883 20.348C158.331 19.8253 158.928 19.4333 159.675 19.172C159.432 19.2467 159.199 19.3213 158.975 19.396C158.713 19.4893 158.48 19.6387 158.275 19.844ZM161.635 18.92C161.541 18.9013 161.411 18.892 161.243 18.892C161.84 19.0413 162.4 19.2093 162.923 19.396C163.445 19.564 163.94 19.9093 164.407 20.432C164.089 20.0027 163.669 19.6667 163.147 19.424C162.643 19.1813 162.139 19.0133 161.635 18.92ZM162.391 22.112C162.241 22 162.064 21.916 161.859 21.86C161.672 21.7853 161.439 21.692 161.159 21.58L161.131 21.524C161.448 21.5427 161.728 21.6173 161.971 21.748C162.213 21.86 162.447 22.0653 162.671 22.364L162.391 22.112ZM164.463 20.488C164.724 20.8053 164.967 21.1693 165.191 21.58C165.415 21.9907 165.611 22.3547 165.779 22.672C165.592 22.2427 165.415 21.8507 165.247 21.496C165.079 21.1413 164.817 20.8053 164.463 20.488Z" fill="#3B82F6"/>
</svg>
